<?xml version="1.0"?>
<svg version="1.1" id="Layer_1" xmlns="http://www.w3.org/2000/svg" xmlns:xlink="http://www.w3.org/1999/xlink" x="0px" y="0px"
	 width="21px" height="23px" viewBox="0 0 21 23" enable-background="new 0 0 21 23" xml:space="preserve">
    <desc iVinci="yes" version="4.5" gridStep="20" showGrid="no" snapToGrid="no" codePlatform="0"/>
    <g id="Layer1" opacity="1">
        <g id="Shape1">
            <desc shapeID="1" type="0" basicInfo-basicType="0" basicInfo-roundedRectRadius="12" basicInfo-polygonSides="6" basicInfo-starPoints="5" bounding="rect(-3.1665,-3.167,6.333,6.334)" text="" font-familyName="" font-pixelSize="20" font-bold="0" font-underline="0" font-alignment="1" strokeStyle="0" markerStart="0" markerEnd="0" shadowEnabled="0" shadowOffsetX="0" shadowOffsetY="2" shadowBlur="4" shadowOpacity="160" blurEnabled="0" blurRadius="4" transform="matrix(1,0,0,1,3.1675,11.213)" pers-center="0,0" pers-size="0,0" pers-start="0,0" pers-end="0,0" locked="0" mesh="" flag=""/>
            <path id="shapePath1" d="M3.167,14.38 C4.913,14.38 6.334,12.96 6.334,11.213 C6.334,9.467 4.914,8.046 3.167,8.046 C1.42,8.046 0.00100088,9.466 0.00100088,11.213 C9.53674e-07,12.96 1.421,14.38 3.167,14.38 M3.167,9.047 C4.362,9.047 5.334,10.019 5.334,11.214 C5.334,12.409 4.362,13.381 3.167,13.381 C1.972,13.381 1.001,12.409 1.001,11.214 C1.001,10.019 1.972,9.047 3.167,9.047 Z" style="stroke:none;fill-rule:evenodd;fill:#000000;fill-opacity:1;"/>
        </g>
        <g id="Shape2">
            <desc shapeID="2" type="0" basicInfo-basicType="0" basicInfo-roundedRectRadius="12" basicInfo-polygonSides="6" basicInfo-starPoints="5" bounding="rect(-1.014,-1.014,2.028,2.028)" text="" font-familyName="" font-pixelSize="20" font-bold="0" font-underline="0" font-alignment="1" strokeStyle="0" markerStart="0" markerEnd="0" shadowEnabled="0" shadowOffsetX="0" shadowOffsetY="2" shadowBlur="4" shadowOpacity="160" blurEnabled="0" blurRadius="4" transform="matrix(1,0,0,1,3.167,11.214)" pers-center="0,0" pers-size="0,0" pers-start="0,0" pers-end="0,0" locked="0" mesh="" flag=""/>
            <path id="shapePath2" d="M4.181,11.214 C4.181,11.774 3.727,12.228 3.167,12.228 C2.60698,12.228 2.153,11.774 2.153,11.214 C2.153,10.654 2.60698,10.2 3.167,10.2 C3.727,10.2 4.181,10.654 4.181,11.214 Z" style="stroke:none;fill-rule:evenodd;fill:#000000;fill-opacity:1;"/>
        </g>
        <g id="Shape3">
            <desc shapeID="3" type="0" basicInfo-basicType="0" basicInfo-roundedRectRadius="12" basicInfo-polygonSides="6" basicInfo-starPoints="5" bounding="rect(-3.1665,-3.167,6.333,6.334)" text="" font-familyName="" font-pixelSize="20" font-bold="0" font-underline="0" font-alignment="1" strokeStyle="0" markerStart="0" markerEnd="0" shadowEnabled="0" shadowOffsetX="0" shadowOffsetY="2" shadowBlur="4" shadowOpacity="160" blurEnabled="0" blurRadius="4" transform="matrix(1,0,0,1,3.1675,19.258)" pers-center="0,0" pers-size="0,0" pers-start="0,0" pers-end="0,0" locked="0" mesh="" flag=""/>
            <path id="shapePath3" d="M3.167,22.425 C4.913,22.425 6.334,21.005 6.334,19.258 C6.334,17.512 4.914,16.091 3.167,16.091 C1.42,16.091 0.00100088,17.511 0.00100088,19.258 C9.53674e-07,21.005 1.421,22.425 3.167,22.425 M3.167,17.092 C4.362,17.092 5.334,18.064 5.334,19.259 C5.334,20.454 4.362,21.426 3.167,21.426 C1.972,21.426 1.001,20.454 1.001,19.259 C1,18.064 1.972,17.092 3.167,17.092 Z" style="stroke:none;fill-rule:evenodd;fill:#000000;fill-opacity:1;"/>
        </g>
        <g id="Shape4">
            <desc shapeID="4" type="0" basicInfo-basicType="0" basicInfo-roundedRectRadius="12" basicInfo-polygonSides="6" basicInfo-starPoints="5" bounding="rect(-1.014,-1.014,2.028,2.028)" text="" font-familyName="" font-pixelSize="20" font-bold="0" font-underline="0" font-alignment="1" strokeStyle="0" markerStart="0" markerEnd="0" shadowEnabled="0" shadowOffsetX="0" shadowOffsetY="2" shadowBlur="4" shadowOpacity="160" blurEnabled="0" blurRadius="4" transform="matrix(1,0,0,1,3.167,19.259)" pers-center="0,0" pers-size="0,0" pers-start="0,0" pers-end="0,0" locked="0" mesh="" flag=""/>
            <path id="shapePath4" d="M4.181,19.259 C4.181,19.819 3.727,20.273 3.167,20.273 C2.60698,20.273 2.153,19.819 2.153,19.259 C2.153,18.699 2.60698,18.245 3.167,18.245 C3.727,18.245 4.181,18.699 4.181,19.259 Z" style="stroke:none;fill-rule:evenodd;fill:#000000;fill-opacity:1;"/>
        </g>
        <g id="Shape5">
            <desc shapeID="5" type="0" basicInfo-basicType="0" basicInfo-roundedRectRadius="12" basicInfo-polygonSides="6" basicInfo-starPoints="5" bounding="rect(-3.1665,-3.167,6.333,6.334)" text="" font-familyName="" font-pixelSize="20" font-bold="0" font-underline="0" font-alignment="1" strokeStyle="0" markerStart="0" markerEnd="0" shadowEnabled="0" shadowOffsetX="0" shadowOffsetY="2" shadowBlur="4" shadowOpacity="160" blurEnabled="0" blurRadius="4" transform="matrix(1,0,0,1,3.1665,3.167)" pers-center="0,0" pers-size="0,0" pers-start="0,0" pers-end="0,0" locked="0" mesh="" flag=""/>
            <path id="shapePath5" d="M3.166,6.334 C4.912,6.334 6.333,4.914 6.333,3.167 C6.333,1.421 4.913,4.76837e-07 3.166,4.76837e-07 C1.419,4.76837e-07 7.15256e-07,1.42 7.15256e-07,3.167 C-0.000999212,4.914 1.42,6.334 3.166,6.334 M3.166,1.001 C4.361,1.001 5.333,1.973 5.333,3.168 C5.333,4.363 4.361,5.335 3.166,5.335 C1.971,5.335 1,4.363 1,3.168 C1,1.973 1.971,1.001 3.166,1.001 Z" style="stroke:none;fill-rule:evenodd;fill:#000000;fill-opacity:1;"/>
        </g>
        <g id="Shape6">
            <desc shapeID="6" type="0" basicInfo-basicType="0" basicInfo-roundedRectRadius="12" basicInfo-polygonSides="6" basicInfo-starPoints="5" bounding="rect(-1.014,-1.014,2.028,2.028)" text="" font-familyName="" font-pixelSize="20" font-bold="0" font-underline="0" font-alignment="1" strokeStyle="0" markerStart="0" markerEnd="0" shadowEnabled="0" shadowOffsetX="0" shadowOffsetY="2" shadowBlur="4" shadowOpacity="160" blurEnabled="0" blurRadius="4" transform="matrix(1,0,0,1,3.166,3.168)" pers-center="0,0" pers-size="0,0" pers-start="0,0" pers-end="0,0" locked="0" mesh="" flag=""/>
            <path id="shapePath6" d="M4.18,3.168 C4.18,3.728 3.726,4.182 3.166,4.182 C2.60598,4.182 2.152,3.728 2.152,3.168 C2.152,2.608 2.60598,2.154 3.166,2.154 C3.726,2.154 4.18,2.608 4.18,3.168 Z" style="stroke:none;fill-rule:evenodd;fill:#000000;fill-opacity:1;"/>
        </g>
        <g id="Shape7">
            <desc shapeID="7" type="0" basicInfo-basicType="0" basicInfo-roundedRectRadius="12" basicInfo-polygonSides="6" basicInfo-starPoints="5" bounding="rect(-3.1665,-3.167,6.333,6.334)" text="" font-familyName="" font-pixelSize="20" font-bold="0" font-underline="0" font-alignment="1" strokeStyle="0" markerStart="0" markerEnd="0" shadowEnabled="0" shadowOffsetX="0" shadowOffsetY="2" shadowBlur="4" shadowOpacity="160" blurEnabled="0" blurRadius="4" transform="matrix(1,0,0,1,10.5005,11.213)" pers-center="0,0" pers-size="0,0" pers-start="0,0" pers-end="0,0" locked="0" mesh="" flag=""/>
            <path id="shapePath7" d="M10.5,14.38 C12.246,14.38 13.667,12.96 13.667,11.213 C13.667,9.467 12.247,8.046 10.5,8.046 C8.753,8.046 7.334,9.466 7.334,11.213 C7.333,12.96 8.754,14.38 10.5,14.38 M10.5,9.047 C11.695,9.047 12.667,10.019 12.667,11.214 C12.667,12.409 11.695,13.381 10.5,13.381 C9.305,13.381 8.334,12.409 8.334,11.214 C8.334,10.019 9.305,9.047 10.5,9.047 Z" style="stroke:none;fill-rule:evenodd;fill:#000000;fill-opacity:1;"/>
        </g>
        <g id="Shape8">
            <desc shapeID="8" type="0" basicInfo-basicType="0" basicInfo-roundedRectRadius="12" basicInfo-polygonSides="6" basicInfo-starPoints="5" bounding="rect(-1.014,-1.014,2.028,2.028)" text="" font-familyName="" font-pixelSize="20" font-bold="0" font-underline="0" font-alignment="1" strokeStyle="0" markerStart="0" markerEnd="0" shadowEnabled="0" shadowOffsetX="0" shadowOffsetY="2" shadowBlur="4" shadowOpacity="160" blurEnabled="0" blurRadius="4" transform="matrix(1,0,0,1,10.5,11.214)" pers-center="0,0" pers-size="0,0" pers-start="0,0" pers-end="0,0" locked="0" mesh="" flag=""/>
            <path id="shapePath8" d="M11.514,11.214 C11.514,11.774 11.06,12.228 10.5,12.228 C9.93998,12.228 9.486,11.774 9.486,11.214 C9.486,10.654 9.93998,10.2 10.5,10.2 C11.06,10.2 11.514,10.654 11.514,11.214 Z" style="stroke:none;fill-rule:evenodd;fill:#000000;fill-opacity:1;"/>
        </g>
        <g id="Shape9">
            <desc shapeID="9" type="0" basicInfo-basicType="0" basicInfo-roundedRectRadius="12" basicInfo-polygonSides="6" basicInfo-starPoints="5" bounding="rect(-3.1665,-3.167,6.333,6.334)" text="" font-familyName="" font-pixelSize="20" font-bold="0" font-underline="0" font-alignment="1" strokeStyle="0" markerStart="0" markerEnd="0" shadowEnabled="0" shadowOffsetX="0" shadowOffsetY="2" shadowBlur="4" shadowOpacity="160" blurEnabled="0" blurRadius="4" transform="matrix(1,0,0,1,10.5005,19.258)" pers-center="0,0" pers-size="0,0" pers-start="0,0" pers-end="0,0" locked="0" mesh="" flag=""/>
            <path id="shapePath9" d="M10.5,22.425 C12.246,22.425 13.667,21.005 13.667,19.258 C13.667,17.512 12.247,16.091 10.5,16.091 C8.753,16.091 7.334,17.511 7.334,19.258 C7.333,21.005 8.754,22.425 10.5,22.425 M10.5,17.092 C11.695,17.092 12.667,18.064 12.667,19.259 C12.667,20.454 11.695,21.426 10.5,21.426 C9.305,21.426 8.334,20.454 8.334,19.259 C8.333,18.064 9.305,17.092 10.5,17.092 Z" style="stroke:none;fill-rule:evenodd;fill:#000000;fill-opacity:1;"/>
        </g>
        <g id="Shape10">
            <desc shapeID="10" type="0" basicInfo-basicType="0" basicInfo-roundedRectRadius="12" basicInfo-polygonSides="6" basicInfo-starPoints="5" bounding="rect(-1.014,-1.014,2.028,2.028)" text="" font-familyName="" font-pixelSize="20" font-bold="0" font-underline="0" font-alignment="1" strokeStyle="0" markerStart="0" markerEnd="0" shadowEnabled="0" shadowOffsetX="0" shadowOffsetY="2" shadowBlur="4" shadowOpacity="160" blurEnabled="0" blurRadius="4" transform="matrix(1,0,0,1,10.5,19.259)" pers-center="0,0" pers-size="0,0" pers-start="0,0" pers-end="0,0" locked="0" mesh="" flag=""/>
            <path id="shapePath10" d="M11.514,19.259 C11.514,19.819 11.06,20.273 10.5,20.273 C9.93998,20.273 9.486,19.819 9.486,19.259 C9.486,18.699 9.93998,18.245 10.5,18.245 C11.06,18.245 11.514,18.699 11.514,19.259 Z" style="stroke:none;fill-rule:evenodd;fill:#000000;fill-opacity:1;"/>
        </g>
        <g id="Shape11">
            <desc shapeID="11" type="0" basicInfo-basicType="0" basicInfo-roundedRectRadius="12" basicInfo-polygonSides="6" basicInfo-starPoints="5" bounding="rect(-3.1665,-3.167,6.333,6.334)" text="" font-familyName="" font-pixelSize="20" font-bold="0" font-underline="0" font-alignment="1" strokeStyle="0" markerStart="0" markerEnd="0" shadowEnabled="0" shadowOffsetX="0" shadowOffsetY="2" shadowBlur="4" shadowOpacity="160" blurEnabled="0" blurRadius="4" transform="matrix(1,0,0,1,10.4995,3.167)" pers-center="0,0" pers-size="0,0" pers-start="0,0" pers-end="0,0" locked="0" mesh="" flag=""/>
            <path id="shapePath11" d="M10.499,6.334 C12.245,6.334 13.666,4.914 13.666,3.167 C13.666,1.421 12.246,0 10.499,0 C8.752,0 7.333,1.42 7.333,3.167 C7.332,4.914 8.753,6.334 10.499,6.334 M10.499,1.001 C11.694,1.001 12.666,1.973 12.666,3.168 C12.666,4.363 11.694,5.335 10.499,5.335 C9.304,5.335 8.333,4.363 8.333,3.168 C8.333,1.973 9.304,1.001 10.499,1.001 Z" style="stroke:none;fill-rule:evenodd;fill:#000000;fill-opacity:1;"/>
        </g>
        <g id="Shape12">
            <desc shapeID="12" type="0" basicInfo-basicType="0" basicInfo-roundedRectRadius="12" basicInfo-polygonSides="6" basicInfo-starPoints="5" bounding="rect(-1.014,-1.014,2.028,2.028)" text="" font-familyName="" font-pixelSize="20" font-bold="0" font-underline="0" font-alignment="1" strokeStyle="0" markerStart="0" markerEnd="0" shadowEnabled="0" shadowOffsetX="0" shadowOffsetY="2" shadowBlur="4" shadowOpacity="160" blurEnabled="0" blurRadius="4" transform="matrix(1,0,0,1,10.499,3.168)" pers-center="0,0" pers-size="0,0" pers-start="0,0" pers-end="0,0" locked="0" mesh="" flag=""/>
            <path id="shapePath12" d="M11.513,3.168 C11.513,3.728 11.059,4.182 10.499,4.182 C9.93898,4.182 9.485,3.728 9.485,3.168 C9.485,2.608 9.93898,2.154 10.499,2.154 C11.059,2.154 11.513,2.608 11.513,3.168 Z" style="stroke:none;fill-rule:evenodd;fill:#000000;fill-opacity:1;"/>
        </g>
        <g id="Shape13">
            <desc shapeID="13" type="0" basicInfo-basicType="0" basicInfo-roundedRectRadius="12" basicInfo-polygonSides="6" basicInfo-starPoints="5" bounding="rect(-3.1665,-3.167,6.333,6.334)" text="" font-familyName="" font-pixelSize="20" font-bold="0" font-underline="0" font-alignment="1" strokeStyle="0" markerStart="0" markerEnd="0" shadowEnabled="0" shadowOffsetX="0" shadowOffsetY="2" shadowBlur="4" shadowOpacity="160" blurEnabled="0" blurRadius="4" transform="matrix(1,0,0,1,17.8335,11.213)" pers-center="0,0" pers-size="0,0" pers-start="0,0" pers-end="0,0" locked="0" mesh="" flag=""/>
            <path id="shapePath13" d="M17.833,14.38 C19.579,14.38 21,12.96 21,11.213 C21,9.467 19.58,8.046 17.833,8.046 C16.086,8.046 14.667,9.466 14.667,11.213 C14.666,12.96 16.087,14.38 17.833,14.38 M17.833,9.047 C19.028,9.047 20,10.019 20,11.214 C20,12.409 19.028,13.381 17.833,13.381 C16.638,13.381 15.667,12.409 15.667,11.214 C15.667,10.019 16.638,9.047 17.833,9.047 Z" style="stroke:none;fill-rule:evenodd;fill:#000000;fill-opacity:1;"/>
        </g>
        <g id="Shape14">
            <desc shapeID="14" type="0" basicInfo-basicType="0" basicInfo-roundedRectRadius="12" basicInfo-polygonSides="6" basicInfo-starPoints="5" bounding="rect(-1.014,-1.014,2.028,2.028)" text="" font-familyName="" font-pixelSize="20" font-bold="0" font-underline="0" font-alignment="1" strokeStyle="0" markerStart="0" markerEnd="0" shadowEnabled="0" shadowOffsetX="0" shadowOffsetY="2" shadowBlur="4" shadowOpacity="160" blurEnabled="0" blurRadius="4" transform="matrix(1,0,0,1,17.833,11.214)" pers-center="0,0" pers-size="0,0" pers-start="0,0" pers-end="0,0" locked="0" mesh="" flag=""/>
            <path id="shapePath14" d="M18.847,11.214 C18.847,11.774 18.393,12.228 17.833,12.228 C17.273,12.228 16.819,11.774 16.819,11.214 C16.819,10.654 17.273,10.2 17.833,10.2 C18.393,10.2 18.847,10.654 18.847,11.214 Z" style="stroke:none;fill-rule:evenodd;fill:#000000;fill-opacity:1;"/>
        </g>
        <g id="Shape15">
            <desc shapeID="15" type="0" basicInfo-basicType="0" basicInfo-roundedRectRadius="12" basicInfo-polygonSides="6" basicInfo-starPoints="5" bounding="rect(-3.1665,-3.167,6.333,6.334)" text="" font-familyName="" font-pixelSize="20" font-bold="0" font-underline="0" font-alignment="1" strokeStyle="0" markerStart="0" markerEnd="0" shadowEnabled="0" shadowOffsetX="0" shadowOffsetY="2" shadowBlur="4" shadowOpacity="160" blurEnabled="0" blurRadius="4" transform="matrix(1,0,0,1,17.8335,19.258)" pers-center="0,0" pers-size="0,0" pers-start="0,0" pers-end="0,0" locked="0" mesh="" flag=""/>
            <path id="shapePath15" d="M17.833,22.425 C19.579,22.425 21,21.005 21,19.258 C21,17.512 19.58,16.091 17.833,16.091 C16.086,16.091 14.667,17.511 14.667,19.258 C14.666,21.005 16.087,22.425 17.833,22.425 M17.833,17.092 C19.028,17.092 20,18.064 20,19.259 C20,20.454 19.028,21.426 17.833,21.426 C16.638,21.426 15.667,20.454 15.667,19.259 C15.666,18.064 16.638,17.092 17.833,17.092 Z" style="stroke:none;fill-rule:evenodd;fill:#000000;fill-opacity:1;"/>
        </g>
        <g id="Shape16">
            <desc shapeID="16" type="0" basicInfo-basicType="0" basicInfo-roundedRectRadius="12" basicInfo-polygonSides="6" basicInfo-starPoints="5" bounding="rect(-1.014,-1.014,2.028,2.028)" text="" font-familyName="" font-pixelSize="20" font-bold="0" font-underline="0" font-alignment="1" strokeStyle="0" markerStart="0" markerEnd="0" shadowEnabled="0" shadowOffsetX="0" shadowOffsetY="2" shadowBlur="4" shadowOpacity="160" blurEnabled="0" blurRadius="4" transform="matrix(1,0,0,1,17.833,19.259)" pers-center="0,0" pers-size="0,0" pers-start="0,0" pers-end="0,0" locked="0" mesh="" flag=""/>
            <path id="shapePath16" d="M18.847,19.259 C18.847,19.819 18.393,20.273 17.833,20.273 C17.273,20.273 16.819,19.819 16.819,19.259 C16.819,18.699 17.273,18.245 17.833,18.245 C18.393,18.245 18.847,18.699 18.847,19.259 Z" style="stroke:none;fill-rule:evenodd;fill:#000000;fill-opacity:1;"/>
        </g>
        <g id="Shape17">
            <desc shapeID="17" type="0" basicInfo-basicType="0" basicInfo-roundedRectRadius="12" basicInfo-polygonSides="6" basicInfo-starPoints="5" bounding="rect(-3.1665,-3.167,6.333,6.334)" text="" font-familyName="" font-pixelSize="20" font-bold="0" font-underline="0" font-alignment="1" strokeStyle="0" markerStart="0" markerEnd="0" shadowEnabled="0" shadowOffsetX="0" shadowOffsetY="2" shadowBlur="4" shadowOpacity="160" blurEnabled="0" blurRadius="4" transform="matrix(1,0,0,1,17.8325,3.167)" pers-center="0,0" pers-size="0,0" pers-start="0,0" pers-end="0,0" locked="0" mesh="" flag=""/>
            <path id="shapePath17" d="M17.832,6.334 C19.578,6.334 20.999,4.914 20.999,3.167 C20.999,1.421 19.579,0 17.832,0 C16.085,0 14.666,1.42 14.666,3.167 C14.665,4.914 16.086,6.334 17.832,6.334 M17.832,1.001 C19.027,1.001 19.999,1.973 19.999,3.168 C19.999,4.363 19.027,5.335 17.832,5.335 C16.637,5.335 15.666,4.363 15.666,3.168 C15.666,1.973 16.637,1.001 17.832,1.001 Z" style="stroke:none;fill-rule:evenodd;fill:#000000;fill-opacity:1;"/>
        </g>
        <g id="Shape18">
            <desc shapeID="18" type="0" basicInfo-basicType="0" basicInfo-roundedRectRadius="12" basicInfo-polygonSides="6" basicInfo-starPoints="5" bounding="rect(-1.014,-1.014,2.028,2.028)" text="" font-familyName="" font-pixelSize="20" font-bold="0" font-underline="0" font-alignment="1" strokeStyle="0" markerStart="0" markerEnd="0" shadowEnabled="0" shadowOffsetX="0" shadowOffsetY="2" shadowBlur="4" shadowOpacity="160" blurEnabled="0" blurRadius="4" transform="matrix(1,0,0,1,17.832,3.168)" pers-center="0,0" pers-size="0,0" pers-start="0,0" pers-end="0,0" locked="0" mesh="" flag=""/>
            <path id="shapePath18" d="M18.846,3.168 C18.846,3.728 18.392,4.182 17.832,4.182 C17.272,4.182 16.818,3.728 16.818,3.168 C16.818,2.608 17.272,2.154 17.832,2.154 C18.392,2.154 18.846,2.608 18.846,3.168 Z" style="stroke:none;fill-rule:evenodd;fill:#000000;fill-opacity:1;"/>
        </g>
    </g>
</svg>
