<?xml version="1.0"?>
<svg version="1.1" id="Layer_1" xmlns="http://www.w3.org/2000/svg" xmlns:xlink="http://www.w3.org/1999/xlink" x="0px" y="0px"
	 width="21px" height="23px" viewBox="0 0 21 23" enable-background="new 0 0 21 23" xml:space="preserve">

    <desc iVinci="yes" version="4.5" gridStep="20" showGrid="no" snapToGrid="no" codePlatform="0"/>
    <g id="Layer1" opacity="1">
        <g id="Shape1">
            <path id="shapePath1" d="M3.167,6.336 C4.265,6.336 5.233,5.774 5.801,4.923 L10.138,7.339 L10.138,8.073 C8.51,8.203 7.221,9.554 7.221,11.214 C7.221,12.874 8.51,14.225 10.138,14.355 L10.138,16.117 C8.51,16.247 7.221,17.598 7.221,19.258 C7.221,21.004 8.641,22.425 10.388,22.425 C12.134,22.425 13.554,21.005 13.554,19.258 C13.554,18.414 13.217,17.65 12.677,17.082 L15.695,13.719 C16.228,14.127 16.887,14.379 17.608,14.379 C19.354,14.379 20.775,12.959 20.775,11.212 C20.775,9.466 19.355,8.045 17.608,8.045 C16.51,8.045 15.543,8.607 14.974,9.458 L10.637,7.042 L10.637,6.308 C12.181,6.185 13.405,4.96 13.528,3.417 L14.466,3.417 C14.596,5.045 15.947,6.334 17.607,6.334 C19.353,6.334 20.774,4.914 20.774,3.167 C20.774,1.421 19.354,1.90735e-06 17.607,1.90735e-06 C15.947,1.90735e-06 14.596,1.289 14.466,2.917 L13.528,2.917 C13.398,1.289 12.047,1.90735e-06 10.387,1.90735e-06 C8.641,1.90735e-06 7.22,1.42 7.22,3.167 C7.22,4.827 8.509,6.178 10.137,6.308 L10.137,6.764 L6.039,4.481 C6.223,4.08 6.333,3.637 6.333,3.167 C6.333,1.421 4.913,1.90735e-06 3.166,1.90735e-06 C1.419,1.90735e-06 9.53674e-07,1.42 9.53674e-07,3.167 C9.53674e-07,4.915 1.421,6.336 3.167,6.336 M10.637,12.178 C11.073,12.064 11.401,11.686 11.401,11.214 C11.401,10.742 11.073,10.364 10.637,10.25 L10.637,10.048 L10.776,10.048 C11.01,10.048 11.082,9.9 10.934,9.717 L10.654,9.37 C10.649,9.364 10.642,9.362 10.637,9.356 L10.637,9.072 C11.713,9.198 12.553,10.104 12.553,11.213 C12.553,12.322 11.712,13.229 10.637,13.354 L10.637,12.178 M8.221,11.214 C8.221,10.105 9.062,9.198 10.138,9.073 L10.138,9.357 C10.133,9.363 10.126,9.364 10.121,9.371 L9.841,9.718 C9.695,9.901 9.765,10.049 9.999,10.049 L10.138,10.049 L10.138,10.251 C9.702,10.365 9.374,10.743 9.374,11.215 C9.374,11.687 9.702,12.065 10.138,12.179 L10.138,13.357 C9.061,13.229 8.221,12.323 8.221,11.214 M11.361,17.529 C11.18,17.379 11.031,17.448 11.028,17.683 L11.023,18.129 C11.023,18.143 11.029,18.154 11.03,18.167 L10.848,18.369 C10.781,18.334 10.71,18.314 10.636,18.294 L10.636,17.116 C11.005,17.159 11.346,17.288 11.634,17.492 L11.499,17.642 L11.361,17.529 M12.554,19.259 C12.554,20.454 11.582,21.426 10.388,21.426 C9.194,21.426 8.221,20.454 8.221,19.259 C8.221,18.15 9.062,17.244 10.138,17.118 L10.138,18.296 C9.702,18.41 9.374,18.788 9.374,19.26 C9.374,19.82 9.828,20.274 10.388,20.274 C10.948,20.274 11.402,19.82 11.402,19.26 C11.402,19.052 11.325,18.871 11.217,18.71 L11.432,18.47 C11.433,18.47 11.433,18.47 11.434,18.47 L11.872,18.38 C12.102,18.334 12.142,18.174 11.961,18.025 L11.887,17.964 L12.005,17.833 C12.342,18.214 12.554,18.71 12.554,19.259 M15.442,11.214 C15.442,10.921 15.502,10.641 15.608,10.386 L15.796,10.49 L15.733,10.605 C15.621,10.811 15.718,10.944 15.949,10.901 L16.387,10.82 L16.645,10.964 C16.624,11.046 16.594,11.126 16.594,11.215 C16.594,11.423 16.671,11.604 16.779,11.765 L15.992,12.642 C15.653,12.259 15.442,11.763 15.442,11.214 M17.608,9.047 C18.803,9.047 19.775,10.019 19.775,11.214 C19.775,12.409 18.803,13.381 17.608,13.381 C17.142,13.381 16.713,13.23 16.36,12.979 L17.146,12.103 C17.286,12.176 17.439,12.228 17.608,12.228 C18.168,12.228 18.622,11.774 18.622,11.214 C18.622,10.654 18.168,10.2 17.608,10.2 C17.318,10.2 17.06,10.325 16.875,10.52 L16.649,10.394 C16.645,10.379 16.647,10.366 16.641,10.351 L16.469,9.939 C16.378,9.723 16.215,9.715 16.103,9.921 L16.033,10.05 L15.855,9.951 C16.249,9.406 16.886,9.047 17.608,9.047 M14.736,9.9 C14.551,10.301 14.442,10.744 14.442,11.214 C14.442,12.058 14.779,12.822 15.319,13.39 L12.301,16.753 C11.831,16.393 11.261,16.168 10.638,16.118 L10.638,14.355 C12.265,14.225 13.554,12.874 13.554,11.214 C13.554,9.554 12.265,8.203 10.638,8.073 L10.638,7.617 L14.736,9.9 M10.637,5.31 L10.637,4.132 C10.991,4.04 11.258,3.772 11.351,3.418 L11.614,3.418 L11.614,3.557 C11.614,3.791 11.762,3.862 11.945,3.715 L12.292,3.435 C12.298,3.43 12.3,3.424 12.305,3.419 L12.528,3.419 C12.413,4.412 11.63,5.194 10.637,5.31 M17.608,1.003 C18.803,1.003 19.775,1.975 19.775,3.17 C19.775,4.365 18.803,5.337 17.608,5.337 C16.499,5.337 15.592,4.496 15.467,3.42 L15.686,3.42 L15.686,3.559 C15.686,3.793 15.834,3.864 16.017,3.717 L16.364,3.437 C16.37,3.432 16.372,3.426 16.377,3.421 L16.645,3.421 C16.759,3.857 17.137,4.185 17.609,4.185 C18.169,4.185 18.623,3.731 18.623,3.171 C18.623,2.611 18.169,2.157 17.609,2.157 C17.138,2.157 16.759,2.485 16.645,2.921 L16.378,2.921 C16.372,2.916 16.37,2.909 16.364,2.904 L16.017,2.624 C15.834,2.477 15.686,2.548 15.686,2.782 L15.686,2.921 L15.467,2.921 C15.592,1.843 16.499,1.003 17.608,1.003 M8.221,3.169 C8.221,1.974 9.193,1.002 10.388,1.002 C11.497,1.002 12.403,1.843 12.529,2.919 L12.306,2.919 C12.3,2.914 12.298,2.907 12.292,2.902 L11.945,2.622 C11.762,2.475 11.614,2.546 11.614,2.78 L11.614,2.919 L11.351,2.919 C11.237,2.483 10.859,2.155 10.387,2.155 C9.827,2.155 9.373,2.609 9.373,3.169 C9.373,3.64 9.701,4.019 10.137,4.133 L10.137,5.311 C9.061,5.185 8.221,4.278 8.221,3.169 M3.167,1.003 C4.362,1.003 5.334,1.975 5.334,3.17 C5.334,3.463 5.274,3.743 5.168,3.998 L4.904,3.851 C4.899,3.835 4.901,3.82 4.895,3.804 L4.723,3.392 C4.632,3.176 4.469,3.168 4.357,3.374 L4.284,3.505 L4.13,3.419 C4.151,3.337 4.181,3.257 4.181,3.168 C4.181,2.608 3.727,2.154 3.167,2.154 C2.607,2.154 2.153,2.608 2.153,3.168 C2.153,3.728 2.607,4.182 3.167,4.182 C3.457,4.182 3.715,4.057 3.9,3.862 L4.047,3.944 L3.986,4.056 C3.874,4.262 3.971,4.395 4.202,4.352 L4.635,4.272 L4.92,4.431 C4.526,4.976 3.889,5.335 3.167,5.335 C1.972,5.335 1.001,4.363 1.001,3.168 C1,1.974 1.972,1.003 3.167,1.003 Z" style="stroke:none;fill-rule:evenodd;fill:#000000;fill-opacity:1;"/>
        </g>
        <g id="Shape2">
            <path id="shapePath2" d="M3.167,14.38 C4.913,14.38 6.334,12.96 6.334,11.213 C6.334,9.467 4.914,8.046 3.167,8.046 C1.42,8.046 0.00100088,9.466 0.00100088,11.213 C9.53674e-07,12.96 1.421,14.38 3.167,14.38 M3.167,9.047 C4.362,9.047 5.334,10.019 5.334,11.214 C5.334,12.409 4.362,13.381 3.167,13.381 C1.972,13.381 1.001,12.409 1.001,11.214 C1.001,10.019 1.972,9.047 3.167,9.047 Z" style="stroke:none;fill-rule:evenodd;fill:#000000;fill-opacity:1;"/>
        </g>
        <g id="Shape3">
            <path id="shapePath3" d="M4.181,11.214 C4.181,11.774 3.727,12.228 3.167,12.228 C2.60698,12.228 2.153,11.774 2.153,11.214 C2.153,10.654 2.60698,10.2 3.167,10.2 C3.727,10.2 4.181,10.654 4.181,11.214 Z" style="stroke:none;fill-rule:evenodd;fill:#000000;fill-opacity:1;"/>
        </g>
        <g id="Shape4">
            <path id="shapePath4" d="M3.167,22.425 C4.913,22.425 6.334,21.005 6.334,19.258 C6.334,17.512 4.914,16.091 3.167,16.091 C1.42,16.091 0.00100088,17.511 0.00100088,19.258 C9.53674e-07,21.005 1.421,22.425 3.167,22.425 M3.167,17.092 C4.362,17.092 5.334,18.064 5.334,19.259 C5.334,20.454 4.362,21.426 3.167,21.426 C1.972,21.426 1.001,20.454 1.001,19.259 C1,18.064 1.972,17.092 3.167,17.092 Z" style="stroke:none;fill-rule:evenodd;fill:#000000;fill-opacity:1;"/>
        </g>
        <g id="Shape5">
            <path id="shapePath5" d="M4.181,19.259 C4.181,19.819 3.727,20.273 3.167,20.273 C2.60698,20.273 2.153,19.819 2.153,19.259 C2.153,18.699 2.60698,18.245 3.167,18.245 C3.727,18.245 4.181,18.699 4.181,19.259 Z" style="stroke:none;fill-rule:evenodd;fill:#000000;fill-opacity:1;"/>
        </g>
        <g id="Shape6">
            <path id="shapePath6" d="M17.608,16.092 C15.862,16.092 14.441,17.512 14.441,19.259 C14.441,21.005 15.861,22.426 17.608,22.426 C19.355,22.426 20.775,21.006 20.775,19.259 C20.775,17.513 19.354,16.092 17.608,16.092 M17.608,21.425 C16.413,21.425 15.441,20.453 15.441,19.258 C15.441,18.063 16.413,17.091 17.608,17.091 C18.803,17.091 19.775,18.063 19.775,19.258 C19.775,20.454 18.803,21.425 17.608,21.425 Z" style="stroke:none;fill-rule:evenodd;fill:#000000;fill-opacity:1;"/>
        </g>
        <g id="Shape7">
            <path id="shapePath7" d="M18.622,19.259 C18.622,19.819 18.168,20.273 17.608,20.273 C17.048,20.273 16.594,19.819 16.594,19.259 C16.594,18.699 17.048,18.245 17.608,18.245 C18.168,18.245 18.622,18.699 18.622,19.259 Z" style="stroke:none;fill-rule:evenodd;fill:#000000;fill-opacity:1;"/>
        </g>
    </g>
</svg>
