<?xml version="1.0"?>
<svg version="1.1" xmlns="http://www.w3.org/2000/svg" xmlns:xlink="http://www.w3.org/1999/xlink" width="115" height="135">
    <desc iVinci="yes" version="4.5" gridStep="20" showGrid="no" snapToGrid="no" codePlatform="0"/>
    <g id="Layer1" opacity="1">
        <g id="Shape1">
            <path id="shapePath1" d="M8.392,43.913 C6.057,43.913 4.073,44.727 2.444,46.357 C0.815002,47.987 0,49.942 0,52.223 L0,87.258 C0,89.592 0.815002,91.574 2.444,93.204 C4.073,94.834 6.056,95.648 8.391,95.648 C10.727,95.648 12.696,94.834 14.298,93.204 C15.901,91.574 16.702,89.592 16.702,87.258 L16.702,52.223 C16.702,49.941 15.887,47.986 14.258,46.357 C12.629,44.728 10.673,43.913 8.392,43.913 Z" style="stroke:none;fill-rule:nonzero;fill:#000000;fill-opacity:1;"/>
        </g>
        <g id="Shape2">
            <path id="shapePath2" d="M19.963,99.723 C19.963,102.221 20.832,104.339 22.57,106.077 C24.308,107.814 26.426,108.683 28.925,108.683 L34.954,108.683 L35.036,127.177 C35.036,129.513 35.851,131.494 37.48,133.124 C39.109,134.754 41.065,135.568 43.346,135.568 C45.682,135.568 47.664,134.754 49.294,133.124 C50.924,131.494 51.738,129.513 51.738,127.177 L51.738,108.683 L62.981,108.683 L62.981,127.177 C62.981,129.513 63.795,131.494 65.424,133.124 C67.055,134.754 69.037,135.568 71.373,135.568 C73.707,135.568 75.689,134.754 77.319,133.124 C78.948,131.494 79.761,129.513 79.761,127.177 L79.761,108.683 L85.872,108.683 C88.315,108.683 90.407,107.815 92.145,106.077 C93.883,104.339 94.752,102.221 94.752,99.723 L94.752,45.461 L19.963,45.461 L19.963,99.723 Z" style="stroke:none;fill-rule:nonzero;fill:#000000;fill-opacity:1;"/>
        </g>
        <g id="Shape3">
            <path id="shapePath3" d="M75.852,12.465 L81.635,1.792 C82.016,1.086 81.879,0.543003 81.228,0.163004 C80.522,-0.162996 79.979,3.8147e-06 79.599,0.652004 L73.733,11.406 C68.573,9.125 63.115,7.984 57.357,7.984 C51.6,7.984 46.141,9.125 40.981,11.406 L35.115,0.652004 C34.736,3.8147e-06 34.192,-0.162996 33.486,0.163004 C32.834,0.543003 32.699,1.086 33.079,1.792 L38.864,12.465 C32.997,15.452 28.327,19.621 24.85,24.971 C21.374,30.321 19.636,36.174 19.636,42.528 L94.999,42.528 C94.999,36.174 93.261,30.321 89.784,24.971 C86.307,19.621 81.665,15.452 75.852,12.465 M42.407,27.985 C41.783,28.61 41.036,28.922 40.167,28.922 C39.298,28.922 38.565,28.61 37.967,27.985 C37.37,27.361 37.071,26.614 37.071,25.745 C37.071,24.876 37.37,24.129 37.967,23.504 C38.564,22.879 39.298,22.567 40.167,22.567 C41.035,22.567 41.782,22.879 42.407,23.504 C43.032,24.129 43.344,24.876 43.344,25.745 C43.344,26.614 43.032,27.36 42.407,27.985 M76.749,27.985 C76.151,28.61 75.417,28.922 74.548,28.922 C73.679,28.922 72.933,28.61 72.309,27.985 C71.684,27.361 71.372,26.614 71.372,25.745 C71.372,24.876 71.684,24.129 72.309,23.504 C72.933,22.879 73.679,22.567 74.548,22.567 C75.417,22.567 76.151,22.879 76.749,23.504 C77.345,24.129 77.645,24.876 77.645,25.745 C77.645,26.614 77.346,27.36 76.749,27.985 Z" style="stroke:none;fill-rule:nonzero;fill:#000000;fill-opacity:1;"/>
        </g>
        <g id="Shape4">
            <path id="shapePath4" d="M112.27,46.316 C110.641,44.714 108.659,43.913 106.323,43.913 C104.042,43.913 102.087,44.714 100.458,46.316 C98.828,47.919 98.013,49.888 98.013,52.223 L98.013,87.258 C98.013,89.592 98.828,91.574 100.458,93.204 C102.087,94.834 104.042,95.648 106.323,95.648 C108.659,95.648 110.641,94.834 112.27,93.204 C113.9,91.574 114.715,89.592 114.715,87.258 L114.715,52.223 C114.715,49.888 113.9,47.919 112.27,46.316 Z" style="stroke:none;fill-rule:nonzero;fill:#000000;fill-opacity:1;"/>
        </g>
    </g>
</svg>
