<?xml version="1.0" encoding="utf-8"?>
<!-- Generator: Adobe Illustrator 17.0.0, SVG Export Plug-In . SVG Version: 6.00 Build 0)  -->
<!DOCTYPE svg PUBLIC "-//W3C//DTD SVG 1.1//EN" "http://www.w3.org/Graphics/SVG/1.1/DTD/svg11.dtd">
<svg version="1.1" id="Capa_1" xmlns="http://www.w3.org/2000/svg" xmlns:xlink="http://www.w3.org/1999/xlink" x="0px" y="0px"
	 width="91.369px" height="146.572px" viewBox="0 0 91.369 146.572" enable-background="new 0 0 91.369 146.572"
	 xml:space="preserve">
<path d="M90.855,94.05c1.314-14.006-14.004-15.319-14.004-15.319c-4.377-12.692-15.758-6.127-15.758-6.127
	c-5.689-12.692-17.069-3.939-17.069-3.939c-1.097-0.326-2.736-26.672-3.972-38.391c0.944-1.141,1.621-2.51,1.924-4.017
	c2.334-0.145,4.307-0.267,4.979-0.307c0.668-0.042,1.104-0.07,1.104-0.07s0.109,1.795,0.154,2.538
	c0.045,0.743,0.65,0.021,0.65,0.021l5.101-5.926c-0.002,0,0.407-0.395-0.004-0.761c-0.568-0.502-5.948-5.111-5.948-5.111
	s-0.721-0.638-0.666,0.263c0.055,0.904,0.145,2.344,0.145,2.344s-0.393,0.022-0.99,0.061c-0.715,0.043-3.041,0.187-5.699,0.353
	c-1.092-1.781-2.772-3.158-4.774-3.862c0.049,0.017,0.102,0.029,0.15,0.047c-0.225-3.598-0.473-7.578-0.535-8.598
	c-0.035-0.6-0.062-0.991-0.062-0.991s1.439-0.088,2.343-0.143s0.179-0.692,0.179-0.692s-5.23-4.78-5.795-5.283
	c-0.412-0.361-0.754,0.092-0.754,0.092l-5.262,5.784c0,0-0.641,0.687,0.1,0.642c0.743-0.047,2.536-0.155,2.536-0.155
	s0.026,0.435,0.068,1.103c0.063,1.033,0.3,4.841,0.518,8.354c-2.163,0.887-3.906,2.579-4.869,4.702
	c-2.36,0.146-4.662,0.289-5.518,0.342c-0.601,0.035-0.991,0.062-0.991,0.062s-0.088-1.439-0.143-2.344
	c-0.055-0.903-0.692-0.179-0.692-0.179s-4.78,5.23-5.282,5.795c-0.362,0.412,0.091,0.754,0.091,0.754l5.784,5.262
	c0,0,0.687,0.641,0.642-0.1c-0.047-0.743-0.155-2.537-0.155-2.537s0.435-0.025,1.104-0.068c0.798-0.048,2.733-0.168,4.819-0.297
	c0.548,1.635,1.546,3.061,2.842,4.139C26.629,60.318,27.58,75.23,27.58,75.23c-0.77,1.848,2.418,28.837-3.528,29.053
	c-3.409-2.021-7.205-11.003-7.205-11.003c-0.132,0.145-5.029-10.566-5.219-10.566c-9.009-13-14.761,2.426-9.798,8.521
	c-0.559,1.85,1.52,1.508,3.276,14.222c-0.271,2.92,7.531,10.912,7.531,10.912c9.503,15.255,22.384,21.449,22.384,21.449
	c6.128,5.253,2.627,8.316,2.627,8.316v0l44.455,0.437l2.334-7.878C94.066,120.311,90.855,94.05,90.855,94.05z M25.242,24.44
	c0-4.279,3.469-7.748,7.748-7.748s7.747,3.469,7.747,7.748c0,1.332-0.337,2.586-0.929,3.681c-0.255-2.07-0.488-3.331-0.69-3.363
	c-0.974-4.536-10.402-13.332-11.902,3.168c-0.012,0.552-0.022,1.089-0.033,1.632C25.979,28.192,25.242,26.404,25.242,24.44z"/>
</svg>
