<?xml version="1.0" encoding="utf-8"?><svg xmlns="http://www.w3.org/2000/svg" xmlns:xlink="http://www.w3.org/1999/xlink" version="1.1" class="page" pageAlignment="none" x="0px" y="0px" width="247px" height="497px" viewBox="0 0 247 497" enable-background="new 0 0 247 497" xml:space="preserve"><defs/><style type="text/css"/><style type="text/css"/><g type="LAYER" name="workspace" id="workspace" locked="true"/><g id="Layer1"><g id="Shape1">

<path id="shapePath1" width="246.79998672000002" height="394" stroke-miterlimit="3" stroke="none" fill="#008000" d="M224.8,323 L164.8,157 C164.133,156.333 163.8,155.667 163.8,155 C163.8,151.667 165.467,150 168.8,150 C170.8,150 172.133,151.333 172.8,154 L213.8,261 C217.137,268.333 224.47,272 235.8,272 C239.8,272 242.633,269 244.3,263 C245.967,257 246.8,253 246.8,251 L204.8,148 C203.467,135.333 197.467,124.667 186.8,116 C176.133,107.333 163.8,103 149.8,103 L96.7999,103 C82.7999,103 70.2999,107.5 59.2999,116.5 C48.2999,125.5 41.7999,136 39.7999,148 L0.799866,252 C-0.533127,254 -0.200134,257.833 1.79987,263.5 C3.79987,269.167 6.79987,272 10.7999,272 C23.4669,272 30.7999,268.667 32.7999,262 L72.7999,154 C73.4669,152 74.7999,151 76.7999,151 C79.4669,151 80.7999,152.333 80.7999,155 L80.7999,156 L21.7999,323 L21.7999,336 C21.7999,337.334 23.4669,339.668 26.7999,343 C30.1379,346.333 32.4709,348 33.7999,348 L71.7999,348 L71.7999,477 C71.7999,482.333 73.9669,487 78.2999,491 C82.6359,495 87.4689,497 92.7999,497 C98.1329,497 102.8,495 106.8,491 C110.8,487 112.8,482.333 112.8,477 L112.8,343 C112.8,342.333 114.633,341.833 118.3,341.5 C121.967,341.167 125.467,341.167 128.8,341.5 C132.133,341.837 133.8,342.337 133.8,343 L133.8,476 C133.8,481.333 135.8,486.167 139.8,490.5 C143.8,494.833 148.633,497 154.3,497 C159.967,497 164.8,494.833 168.8,490.5 C172.8,486.167 174.8,481.333 174.8,476 L174.8,348 L213.8,348 C215.8,348 218.133,346.333 220.8,343 C223.467,339.667 224.8,337.333 224.8,336 L224.8,333 L224.8,329 L224.8,325 L224.8,323 Z "/></g><g id="Shape2">

<path id="shapePath2" width="85.00010000000002" height="85" stroke-miterlimit="3" stroke="none" fill="#008000" d="M79.7999,42.5 C79.7999,54.167 83.9669,64.167 92.2999,72.5 C100.633,80.833 110.633,85 122.3,85 C133.967,85 143.967,80.833 152.3,72.5 C160.633,64.167 164.8,54.167 164.8,42.5 C164.8,30.833 160.633,20.833 152.3,12.5 C143.967,4.167 133.967,0 122.3,0 C110.633,0 100.633,4.167 92.2999,12.5 C83.9669,20.833 79.7999,30.833 79.7999,42.5 Z "/></g></g></svg>