<?xml version="1.0"?>
<svg version="1.1" id="Layer_1" xmlns="http://www.w3.org/2000/svg" xmlns:xlink="http://www.w3.org/1999/xlink" x="0px" y="0px"
	 width="65px" height="90px" viewBox="0 0 65 90" enable-background="new 0 0 65 90" xml:space="preserve">
    <desc iVinci="yes" version="4.5" gridStep="20" showGrid="no" snapToGrid="no" codePlatform="0"/>
    <g id="Layer1" opacity="1">
        <g id="Shape1">
           <path id="shapePath1" d="M1.55004,24.9673 C2.14504,25.0963 2.69704,25.0873 4.39304,23.7853 C5.14604,23.2063 6.25904,22.2323 7.28704,20.8723 L7.73704,20.2753 C11.587,15.1543 20.601,3.1653 33.62,3.8173 C44.356,4.6003 51.967,12.7083 55.628,27.2653 C55.753,27.7603 55.828,28.0633 55.912,28.2973 C56.471,30.6773 57.41,33.6433 58.762,34.6203 C59.096,34.8623 59.485,34.9783 59.87,34.9783 C60.457,34.9783 61.038,34.7063 61.408,34.1923 C62,33.3733 61.842,32.2393 61.066,31.6113 C60.692,31.1273 59.989,29.1013 59.57,27.2893 C59.546,27.1813 59.511,27.0773 59.468,26.9763 C59.433,26.8523 59.365,26.5823 59.304,26.3403 C58.724,24.0323 57.182,17.9033 53.444,12.1393 C48.616,4.6953 42.031,0.622301 33.872,0.0343018 C33.859,0.0323009 33.846,0.0323009 33.832,0.0323009 C18.793,-0.735699 8.92104,12.3923 4.70704,17.9973 L4.26404,18.5863 C3.11004,20.1113 1.74704,21.0613 1.27704,21.3363 C1.11904,21.3993 0.96504,21.4843 0.822041,21.5923 C0.23204,22.0393 -0.0559597,22.8013 0.103041,23.5233 C0.262039,24.2443 0.82704,24.8093 1.55004,24.9673 Z" style="stroke:none;fill-rule:nonzero;fill:#000000;fill-opacity:1;"/>
        </g>
        <g id="Shape2">
            <path id="shapePath2" d="M49.026,32.2363 C50.456,28.6623 50.492,24.9703 49.12,22.1073 C47.899,19.5523 45.62,17.7023 42.532,16.7563 C37.999,15.3693 32.504,17.8863 27.47,23.6543 C27.406,23.7253 20.24,31.2623 12.715,35.8703 C12.66,35.9033 7.15104,39.2073 1.39804,40.7753 C0.388041,41.0493 -0.20796,42.0923 0.0670395,43.1013 C0.34104,44.1113 1.38304,44.7083 2.39404,44.4313 C8.65104,42.7293 14.432,39.2623 14.685,39.1103 C22.848,34.1113 30.252,26.2343 30.314,26.1603 C33.371,22.6593 37.894,19.3023 41.421,20.3823 C43.498,21.0183 44.938,22.1493 45.701,23.7453 C46.615,25.6543 46.544,28.2373 45.506,30.8303 C43.575,35.6563 37.561,41.4823 28.571,47.2393 C24.064,50.1263 12.715,57.2143 4.69804,60.6403 C3.73504,61.0523 3.28904,62.1643 3.70004,63.1283 C4.00804,63.8483 4.70804,64.2793 5.44404,64.2793 C5.69304,64.2793 5.94604,64.2303 6.18904,64.1273 C14.465,60.5863 26.029,53.3703 30.616,50.4323 C37.442,46.0603 46.177,39.3553 49.026,32.2363 Z" style="stroke:none;fill-rule:nonzero;fill:#000000;fill-opacity:1;"/>
        </g>
        <g id="Shape3">
            <path id="shapePath3" d="M18.497,18.0843 C17.637,19.0323 16.865,20.0503 16.033,21.0213 C14.944,22.2943 13.754,23.4833 12.511,24.6053 C11.233,25.7593 10.199,26.5843 8.69204,27.4513 C7.09304,28.3673 5.46304,29.2953 3.80704,30.1023 C3.23704,30.3803 2.74704,30.5603 2.10604,30.7533 C1.11804,31.0503 0.50404,32.0703 0.783039,33.0853 C1.05104,34.0633 2.12504,34.7073 3.11504,34.4103 C5.05304,33.8263 6.81004,32.8283 8.55904,31.8343 C10.038,30.9943 11.505,30.2373 12.863,29.2043 C15.511,27.1913 17.789,24.8413 19.884,22.2683 C20.733,21.2263 21.64,20.2343 22.588,19.2813 C23.105,18.7613 23.64,18.2603 24.187,17.7693 C24.471,17.5143 24.76,17.2663 25.053,17.0193 C25.201,16.8953 25.351,16.7723 25.502,16.6493 C25.541,16.6173 25.835,16.3853 25.91,16.3253 C27.23,15.3143 28.637,14.4153 30.117,13.6553 C31.515,12.9363 32.917,12.4343 34.618,12.0793 C35.182,11.9623 35.305,11.9493 35.727,11.9063 C36.754,11.8003 37.623,11.1243 37.623,10.0113 C37.623,9.0573 36.757,8.0083 35.727,8.1153 C28.874,8.8263 23.013,13.1103 18.497,18.0843 Z" style="stroke:none;fill-rule:nonzero;fill:#000000;fill-opacity:1;"/>
        </g>
        <g id="Shape4">
            <path id="shapePath4" d="M3.74504,54.3813 C7.86304,52.9683 29.007,45.0733 40.848,28.4763 C41.456,27.6243 41.258,26.4413 40.406,25.8323 C39.553,25.2243 38.369,25.4223 37.761,26.2743 C26.593,41.9303 6.44004,49.4473 2.51304,50.7973 C2.42904,50.8253 2.37704,50.8433 2.35904,50.8493 C1.38004,51.2223 0.887039,52.3153 1.25804,53.2943 C1.54504,54.0523 2.26604,54.5173 3.03204,54.5173 C3.24604,54.5173 3.46504,54.4813 3.67804,54.4053 L3.74504,54.3813 Z" style="stroke:none;fill-rule:nonzero;fill:#000000;fill-opacity:1;"/>
        </g>
        <g id="Shape5">
            <path id="shapePath5" d="M55.326,65.6663 C52.699,64.7903 49.483,62.5013 46.375,60.2873 C41.872,57.0783 37.985,54.3093 34.817,54.8543 C32.437,55.2663 28.278,57.9243 21.713,62.2503 C16.981,65.3703 11.616,68.9063 9.28304,69.5343 C8.27204,69.8083 7.67304,70.8473 7.94504,71.8573 C8.17304,72.7053 8.93804,73.2613 9.77504,73.2613 C9.93804,73.2613 10.104,73.2403 10.268,73.1963 C13.193,72.4073 18.346,69.0103 23.801,65.4163 C28.207,62.5113 33.69,58.8963 35.462,58.5903 C37.071,58.3153 41.011,61.1183 44.176,63.3733 C47.512,65.7493 50.961,68.2063 54.127,69.2623 C55.121,69.5923 56.194,69.0553 56.525,68.0633 C56.856,67.0713 56.319,65.9973 55.326,65.6663 Z" style="stroke:none;fill-rule:nonzero;fill:#000000;fill-opacity:1;"/>
        </g>
        <g id="Shape6">
            <path id="shapePath6" d="M50.58,74.9523 C49.052,74.4003 46.568,72.8653 44.166,71.3813 C39.092,68.2463 35.867,66.3433 33.553,66.7423 C31.209,67.1483 26.286,70.4933 18.024,76.5273 C17.012,77.2653 16.139,77.9023 15.533,78.3313 C14.679,78.9363 14.475,80.1183 15.078,80.9733 C15.449,81.4963 16.034,81.7753 16.628,81.7753 C17.006,81.7753 17.388,81.6623 17.72,81.4283 C18.35,80.9833 19.234,80.3363 20.259,79.5903 C23.547,77.1893 32.283,70.8113 34.179,70.4843 C35.361,70.4033 39.626,73.0343 42.174,74.6083 C44.859,76.2663 47.395,77.8333 49.293,78.5203 C50.276,78.8763 51.364,78.3663 51.72,77.3803 C52.075,76.3933 51.566,75.3083 50.58,74.9523 Z" style="stroke:none;fill-rule:nonzero;fill:#000000;fill-opacity:1;"/>
        </g>
        <g id="Shape7">
            <path id="shapePath7" d="M44.178,84.3763 C43.113,83.6813 42.135,82.9813 41.187,82.3073 C38.079,80.0863 35.391,78.1683 32.446,78.6813 C29.129,79.2543 23.848,84.5653 22.822,85.6223 C22.094,86.3753 22.114,87.5753 22.866,88.3043 C23.234,88.6583 23.709,88.8383 24.183,88.8383 C24.679,88.8383 25.174,88.6453 25.545,88.2603 C28.084,85.6383 31.691,82.6593 33.09,82.4173 C34.474,82.1793 36.566,83.6673 38.985,85.3933 C39.917,86.0593 40.974,86.8123 42.106,87.5523 C42.982,88.1243 44.158,87.8773 44.73,87.0003 C45.301,86.1223 45.054,84.9493 44.178,84.3763 Z" style="stroke:none;fill-rule:nonzero;fill:#000000;fill-opacity:1;"/>
        </g>
        <g id="Shape8">
            <path id="shapePath8" d="M60.858,45.2473 C59.278,44.5803 57.626,43.8783 56.296,42.7713 C54.832,41.5533 54.151,39.9543 53.846,38.1073 C53.45,35.6993 49.796,36.7243 50.19,39.1143 C51.001,44.0313 54.62,46.6943 58.944,48.5193 C59.896,48.9233 60.965,48.8183 61.537,47.8403 C62.01,47.0363 61.81,45.6503 60.858,45.2473 Z" style="stroke:none;fill-rule:nonzero;fill:#000000;fill-opacity:1;"/>
        </g>
        <g id="Shape9">
           <path id="shapePath9" d="M57.179,55.1383 C55.756,54.6993 54.675,54.1443 53.169,53.2543 C50.41,51.6243 47.894,49.2623 46.67,46.2443 C46.282,45.2883 45.423,44.6223 44.338,44.9213 C43.429,45.1713 42.626,46.2943 43.014,47.2543 C45.273,52.8233 50.459,57.0343 56.172,58.7953 C58.515,59.5153 59.509,55.8563 57.179,55.1383 Z" style="stroke:none;fill-rule:nonzero;fill:#000000;fill-opacity:1;"/>
        </g>
    </g>
</svg>
