<?xml version="1.0"?>
<svg version="1.1" xmlns="http://www.w3.org/2000/svg" xmlns:xlink="http://www.w3.org/1999/xlink" width="21.7" height="26.1">
    <desc iVinci="yes" version="4.5" gridStep="20" showGrid="no" snapToGrid="no" codePlatform="0"/>
    <g id="Layer1" opacity="1">
        <g id="Shape1">
            <desc shapeID="1" type="0" basicInfo-basicType="0" basicInfo-roundedRectRadius="12" basicInfo-polygonSides="6" basicInfo-starPoints="5" bounding="rect(-10.6327,-12.961,21.2653,25.922)" text="" font-familyName="" font-pixelSize="20" font-bold="0" font-underline="0" font-alignment="1" strokeStyle="0" markerStart="0" markerEnd="0" shadowEnabled="0" shadowOffsetX="0" shadowOffsetY="2" shadowBlur="4" shadowOpacity="160" blurEnabled="0" blurRadius="4" transform="matrix(0.987523,0,0,1,10.5,13.039)" pers-center="0,0" pers-size="0,0" pers-start="0,0" pers-end="0,0" locked="0" mesh="" flag=""/>
            <path id="shapePath1" d="M0.967771,16.428 C2.40955,15.552 3.22722,16.545 4.80232,17.289 C6.15622,17.929 7.66515,17.939 7.79748,17.136 C8.01078,15.839 7.96437,15.22 7.96437,13.457 C7.96437,12.056 7.52789,8.881 7.18324,6.482 C6.76848,3.595 6.6243,1.905 8.02362,1.772 C9.36665,1.644 9.4338,2.411 9.94431,6.332 C10.3354,9.338 10.9545,11.453 11.2636,11.391 C11.5727,11.329 11.1135,8.605 11.001,5.828 C10.8005,0.858999 11.0632,0.0779991 12.2976,0.0779991 C13.3611,0.0779991 13.5932,0.781 13.7315,5.828 C13.8036,8.453 14.086,11.186 14.3052,11.186 C14.635,11.186 14.8967,8.623 14.8464,5.845 C14.7506,0.650999 15.6532,1.043 16.1963,1.043 C16.7316,1.043 17.6667,1.196 17.6371,6.149 C17.6184,9.045 17.6371,11.545 18.1773,11.545 C18.4182,11.545 18.8073,9.211 18.8073,6.939 C18.8073,3.139 19.5272,3.139 20.099,3.139 C20.6688,3.139 20.969,3.839 20.9986,7.638 C21.0233,10.666 20.6757,14.929 20.6757,17.513 C20.6757,23.802 18.6602,23.868 18.6602,26 L10.2258,26 C9.97789,25.396 9.40418,25.042 8.02263,23.613 C6.62924,22.172 3.4741,19.415 0.986533,18.873 C-0.678428,18.511 0.0780163,16.969 0.967771,16.428 Z" style="stroke:none;fill-rule:evenodd;fill:#000000;fill-opacity:1;"/>
        </g>
        <g id="Shape2">
            <desc shapeID="2" type="0" basicInfo-basicType="0" basicInfo-roundedRectRadius="12" basicInfo-polygonSides="6" basicInfo-starPoints="5" bounding="rect(-2,-2,4,4)" text="" font-familyName="" font-pixelSize="20" font-bold="0" font-underline="0" font-alignment="1" strokeStyle="0" markerStart="0" markerEnd="0" shadowEnabled="0" shadowOffsetX="0" shadowOffsetY="2" shadowBlur="4" shadowOpacity="160" blurEnabled="0" blurRadius="4" transform="matrix(1,0,0,1,8,3)" pers-center="0,0" pers-size="0,0" pers-start="0,0" pers-end="0,0" locked="0" mesh="" flag=""/>
            <path id="shapePath2" d="M6,3 C6,1.89503 6.89503,1 8,1 C9.10497,1 10,1.89503 10,3 C10,4.10497 9.10497,5 8,5 C6.89503,5 6,4.10497 6,3 Z" style="stroke:#008000;stroke-opacity:1;stroke-width:0.5;stroke-linejoin:round;stroke-miterlimit:2;stroke-linecap:butt;fill:none;"/>
        </g>
    </g>
</svg>
