<?xml version="1.0"?>
<svg version="1.1" xmlns="http://www.w3.org/2000/svg" xmlns:xlink="http://www.w3.org/1999/xlink" width="21.7" height="26.1">
    <desc iVinci="yes" version="4.5" gridStep="20" showGrid="no" snapToGrid="no" codePlatform="0"/>
    <g id="Layer1" opacity="1">
        <g id="Shape1">
            <path id="shapePath1" d="M20.0322,16.3992 C18.5904,15.5206 17.7727,16.5166 16.1976,17.2628 C14.8437,17.9047 13.3348,17.9147 13.2025,17.1093 C12.9892,15.8084 13.0356,15.1876 13.0356,13.4193 C13.0356,12.014 13.4721,8.82949 13.8167,6.42327 C14.2315,3.52758 14.3756,1.8325 12.9763,1.6991 C11.6333,1.57071 11.5661,2.34002 11.0556,6.27282 C10.6645,9.28786 10.0454,11.4092 9.73626,11.347 C9.42717,11.2849 9.88636,8.55266 9.99894,5.7673 C10.1994,0.783352 9.93673,9.53674e-07 8.70232,9.53674e-07 C7.63876,9.53674e-07 7.40669,0.705116 7.26844,5.7673 C7.19635,8.4002 6.91392,11.1414 6.69469,11.1414 C6.36485,11.1414 6.10316,8.57071 6.15352,5.78435 C6.24931,0.574725 5.34672,0.967905 4.80358,0.967905 C4.26834,0.967905 3.33316,1.12137 3.36278,6.08927 C3.38155,8.99398 3.36278,11.5015 2.82261,11.5015 C2.58165,11.5015 2.19257,9.16048 2.19257,6.88165 C2.19257,3.07021 1.47266,3.07021 0.900888,3.07021 C0.331088,3.07021 0.03088,3.77232 0.00125504,7.58275 C-0.0234327,10.6199 0.324175,14.8957 0.324175,17.4875 C0.324175,23.7954 2.33971,23.8616 2.33971,26 L10.7741,26 C11.022,25.3942 11.5958,25.0391 12.9773,23.6058 C14.3707,22.1605 17.5258,19.3952 20.0134,18.8516 C21.6784,18.4885 20.9219,16.9418 20.0322,16.3992 Z" style="stroke:none;fill-rule:evenodd;fill:#008000;fill-opacity:1;"/>
        </g>
        <g id="Shape2">
            <path id="shapePath2" d="M14.955,3.04513 C14.955,1.94016 14.06,1.04513 12.955,1.04513 C11.8501,1.04513 10.955,1.94016 10.955,3.04513 C10.955,4.1501 11.8501,5.04513 12.955,5.04513 C14.06,5.04513 14.955,4.1501 14.955,3.04513 Z" style="stroke:#008000;stroke-opacity:1;stroke-width:0.5;stroke-linejoin:round;stroke-miterlimit:2;stroke-linecap:butt;fill:none;"/>
        </g>
    </g>
</svg>
