<?xml version="1.0" encoding="iso-8859-1"?>
<!-- Generator: Adobe Illustrator 16.0.0, SVG Export Plug-In . SVG Version: 6.00 Build 0)  -->
<!DOCTYPE svg PUBLIC "-//W3C//DTD SVG 1.1//EN" "http://www.w3.org/Graphics/SVG/1.1/DTD/svg11.dtd">
<svg version="1.1" id="Layer_1" xmlns="http://www.w3.org/2000/svg" xmlns:xlink="http://www.w3.org/1999/xlink" x="0px" y="0px"
	 width="31.706px" height="28.933px" viewBox="0 0 31.706 28.933" style="enable-background:new 0 0 31.706 28.933;"
	 xml:space="preserve">
<g>
	<rect x="1.164" y="11.444" width="3.028" height="0.354"/>
	<rect x="1.164" y="10.547" width="3.736" height="0.354"/>
	<rect x="1.164" y="12.479" width="1.868" height="0.353"/>
	<rect x="1.164" y="9.603" width="3.028" height="0.354"/>
	<rect x="1.164" y="7.833" width="2.237" height="1.219"/>
	<path d="M5.637,13.152c0-0.548-0.443-0.99-0.99-0.99c-0.545,0-0.988,0.442-0.988,0.99c0,0.544,0.442,0.987,0.988,0.987
		C5.193,14.139,5.637,13.696,5.637,13.152z"/>
	<polygon points="4.648,14.639 5.449,15.652 5.831,14.648 6.896,14.509 6.094,13.497 	"/>
	<polygon points="2.104,13.952 3.108,14.333 3.247,15.398 4.26,14.598 3.117,13.151 	"/>
	<path d="M23.55,3.878l-0.417,0.563l1.237,0.913l-1.358,1.839l0.042,0.057l-3.342,1.784c0.055-0.515,0.105-1.095,0.131-1.688
		C19.92,5.588,20.184,0,15.116,0c-5.067,0-4.929,4.666-4.929,4.666l0.308,5.054L6.117,6.949L6.013,7.118L4.658,5.856V5.845H0v8.934
		h2.818l-0.031-0.236L2.27,14.339H0.44V6.282h3.777L4.21,7.816h1.372L5.28,8.307l0.561,0.375v4.601l0.299-0.213l0.14,0.174V8.975
		l5.82,3.893c0.373,1.258,0.718,2.394,0.718,2.394l-1.029,6.235h2.246v6.432c-0.804,0.013-1.3,0.138-1.3,0.499
		c0,0.381,0.783,0.505,0.783,0.505h0.517h1.239h0.062c0,0,0-0.27,0-0.476c0-0.074-0.02-0.146-0.062-0.213v-6.746h0.575l0.545,3.338
		l-0.586,3.317c-0.1,0.087-0.141,0.192-0.141,0.304c0,0.206,0,0.476,0,0.476h0.058h1.25h0.509c0,0,0.784-0.124,0.784-0.505
		c0-0.346-0.463-0.474-1.211-0.497l0.484-3.095l-0.46-3.338h1.997l-1.438-6.335c0,0,0.253-1.673,0.538-3.271l5.867-3.334
		l1.189,1.573l3.292,1.139l1.359-1.838l0.602,0.446l-0.963,1.303l-0.301-0.223l-0.815,1.103l0.936,0.692l0.815-1.103l-0.2-0.148
		l0.963-1.303l0.368,0.272l0.417-0.565L23.55,3.878z M4.655,6.453l0.992,0.924H4.65L4.655,6.453z M11.182,4.483
		c0-0.135,0.007-0.267,0.021-0.397c1.093-0.074,4.903-0.418,5.001-1.649c0.36,0.664,2.262,2.333,3.032,2.459
		c-0.172,1.684-1.365,3.061-2.958,3.49v1.411h0.007l0.51,0.244l-1.605,2.89l-1.57-2.98l0.4-0.101V8.346
		C12.376,7.832,11.182,6.297,11.182,4.483z"/>
</g>
<g>
</g>
<g>
</g>
<g>
</g>
<g>
</g>
<g>
</g>
<g>
</g>
<g>
</g>
<g>
</g>
<g>
</g>
<g>
</g>
<g>
</g>
<g>
</g>
<g>
</g>
<g>
</g>
<g>
</g>
</svg>
