<?xml version="1.0" encoding="utf-8"?>
<!-- Generator: Adobe Illustrator 15.0.0, SVG Export Plug-In . SVG Version: 6.00 Build 0)  -->
<!DOCTYPE svg PUBLIC "-//W3C//DTD SVG 1.1//EN" "http://www.w3.org/Graphics/SVG/1.1/DTD/svg11.dtd">
<svg version="1.1" id="Layer_1" xmlns="http://www.w3.org/2000/svg" xmlns:xlink="http://www.w3.org/1999/xlink" x="0px" y="0px"
	 width="26px" height="26px" viewBox="0 0 26 26" enable-background="new 0 0 26 26" xml:space="preserve">
<rect fill="none" width="26" height="26"/>
<rect fill="none" width="26" height="26"/>
<path fill="#000000" d="M2.043,16.428c1.46-0.876,2.288,0.117,3.883,0.861c1.371,0.64,2.899,0.65,3.033-0.153
	c0.216-1.297,0.169-1.916,0.169-3.679c0-1.401-0.442-4.576-0.791-6.975c-0.42-2.887-0.566-4.577,0.851-4.71
	c1.36-0.128,1.428,0.639,1.945,4.56c0.396,3.006,1.023,5.121,1.336,5.059s-0.152-2.786-0.266-5.563
	c-0.203-4.969,0.063-5.75,1.313-5.75c1.077,0,1.312,0.703,1.452,5.75c0.073,2.625,0.359,5.358,0.581,5.358
	c0.334,0,0.599-2.563,0.548-5.341c-0.097-5.194,0.817-4.802,1.367-4.802c0.542,0,1.489,0.153,1.459,5.106
	c-0.019,2.896,0,5.396,0.547,5.396c0.244,0,0.638-2.334,0.638-4.606c0-3.8,0.729-3.8,1.308-3.8c0.577,0,0.881,0.7,0.911,4.499
	C22.352,10.666,22,14.929,22,17.513c0,6.289-2.041,6.355-2.041,8.487h-8.541c-0.251-0.604-0.832-0.958-2.231-2.387
	c-1.411-1.441-4.606-4.198-7.125-4.74C0.376,18.511,1.142,16.969,2.043,16.428z"/>
</svg>
