<?xml version="1.0"?>
<svg version="1.1" xmlns="http://www.w3.org/2000/svg" xmlns:xlink="http://www.w3.org/1999/xlink" width="21.7" height="26.1">
    <desc iVinci="yes" version="4.5" gridStep="20" showGrid="no" snapToGrid="no" codePlatform="0"/>
    <g id="Layer1" opacity="1">
        <g id="Shape1">
            <path id="shapePath1" d="M1.11914,16.428 C2.57914,15.552 3.40714,16.545 5.00214,17.289 C6.37314,17.929 7.90114,17.939 8.03514,17.136 C8.25114,15.839 8.20414,15.22 8.20414,13.457 C8.20414,12.056 7.76214,8.881 7.41314,6.482 C6.99314,3.595 6.84714,1.905 8.26414,1.772 C9.62414,1.644 9.69214,2.411 10.2091,6.332 C10.6051,9.338 11.2321,11.453 11.5451,11.391 C11.8581,11.329 11.3931,8.605 11.2791,5.828 C11.0761,0.859 11.3421,0.0780001 12.5921,0.0780001 C13.6691,0.0780001 13.9041,0.781 14.0441,5.828 C14.1171,8.453 14.4031,11.186 14.6251,11.186 C14.9591,11.186 15.2241,8.623 15.1731,5.845 C15.0761,0.651 15.9901,1.043 16.5401,1.043 C17.0821,1.043 18.0291,1.196 17.9991,6.149 C17.9801,9.045 17.9991,11.545 18.5461,11.545 C18.7901,11.545 19.1841,9.211 19.1841,6.939 C19.1841,3.139 19.9131,3.139 20.4921,3.139 C21.0691,3.139 21.3731,3.839 21.4031,7.638 C21.4281,10.666 21.0761,14.929 21.0761,17.513 C21.0761,23.802 19.0351,23.868 19.0351,26 L10.4941,26 C10.2431,25.396 9.66214,25.042 8.26314,23.613 C6.85214,22.172 3.65714,19.415 1.13814,18.873 C-0.547858,18.511 0.218143,16.969 1.11914,16.428 Z" style="stroke:none;fill-rule:nonzero;fill:#008000;fill-opacity:1;"/>
        </g>
        <g id="Shape2">
            <path id="shapePath2" d="M11.9511,19.6237 C11.9807,20.1527 12.1055,20.5822 12.3256,20.9123 C12.7445,21.5301 13.483,21.839 14.5409,21.839 C15.0149,21.839 15.4465,21.7713 15.8358,21.6359 C16.5891,21.3735 16.9657,20.9038 16.9657,20.2267 C16.9657,19.7189 16.807,19.3571 16.4896,19.1413 C16.168,18.9297 15.6644,18.7456 14.9789,18.589 L13.7157,18.3034 C12.8905,18.1172 12.3065,17.912 11.9637,17.6877 C11.3713,17.2984 11.0751,16.7165 11.0751,15.9421 C11.0751,15.1042 11.365,14.4165 11.9447,13.8791 C12.5245,13.3416 13.3454,13.0729 14.4076,13.0729 C15.3851,13.0729 16.2156,13.3089 16.8991,13.7807 C17.5825,14.2525 17.9242,15.0068 17.9242,16.0436 L16.7372,16.0436 C16.6737,15.5443 16.5383,15.1613 16.3309,14.8947 C15.9458,14.4081 15.292,14.1647 14.3695,14.1647 C13.6247,14.1647 13.0894,14.3213 12.7636,14.6345 C12.4377,14.9476 12.2748,15.3115 12.2748,15.7262 C12.2748,16.1833 12.4652,16.5176 12.8461,16.7292 C13.0957,16.8646 13.6607,17.0339 14.5409,17.237 L15.8485,17.5353 C16.479,17.6792 16.9657,17.876 17.3085,18.1257 C17.9009,18.5615 18.1971,19.1942 18.1971,20.0236 C18.1971,21.0562 17.8216,21.7946 17.0704,22.2389 C16.3193,22.6833 15.4465,22.9054 14.452,22.9054 C13.2925,22.9054 12.3848,22.6092 11.7289,22.0168 C11.073,21.4286 10.7513,20.6309 10.764,19.6237 L11.9511,19.6237 Z" style="stroke:none;fill-rule:nonzero;fill:#008000;fill-opacity:1;"/>
        </g>
        <g id="Shape3">
            <path id="shapePath3" d="M11.5435,14.8587 L12.796,14.8587 L14.6505,20.3167 L16.4918,14.8587 L17.731,14.8587 L17.731,21.3143 L16.9005,21.3143 L16.9005,17.5042 C16.9005,17.3724 16.9034,17.1541 16.9092,16.8494 C16.9151,16.5447 16.918,16.2181 16.918,15.8694 L15.0767,21.3143 L14.211,21.3143 L12.3565,15.8694 L12.3565,16.0672 C12.3565,16.2254 12.3602,16.4664 12.3675,16.7901 C12.3748,17.1138 12.3785,17.3519 12.3785,17.5042 L12.3785,21.3143 L11.5435,21.3143 L11.5435,14.8587 Z" style="stroke:none;fill-rule:nonzero;fill:#f0eadf;fill-opacity:1;"/>
        </g>
    </g>
</svg>
