<?xml version="1.0"?>
<svg version="1.1" id="Layer_1" xmlns="http://www.w3.org/2000/svg" xmlns:xlink="http://www.w3.org/1999/xlink" x="0px" y="0px"
	 width="50px" height="48px" viewBox="0 0 50 48" enable-background="new 0 0 50 48" xml:space="preserve">
    <desc iVinci="yes" version="4.5" gridStep="20" showGrid="no" snapToGrid="no" codePlatform="0"/>
    <g id="Layer1" opacity="1">
        <g id="Shape1">
            <path id="shapePath1" d="M47.8644,15.971 C47.8644,14.578 46.7364,13.451 45.3434,13.451 L42.8234,13.451 L42.8234,18.911 L45.3434,18.911 C46.7364,18.911 47.8644,17.783 47.8644,16.391 L47.8644,15.971 Z" style="stroke:none;fill-rule:nonzero;fill:#008000;fill-opacity:1;"/>
        </g>
        <g id="Shape2">
            <path id="shapePath2" d="M47.8644,22.41 C47.8644,21.018 46.7364,19.89 45.3434,19.89 L42.8234,19.89 L42.8234,25.349 L45.3434,25.349 C46.7364,25.349 47.8644,24.221 47.8644,22.83 L47.8644,22.41 Z" style="stroke:none;fill-rule:nonzero;fill:#008000;fill-opacity:1;"/>
        </g>
        <g id="Shape3">
            <path id="shapePath3" d="M47.8644,29.27 L47.8644,28.85 C47.8644,27.458 46.7364,26.33 45.3434,26.33 L42.8234,26.33 L42.8234,31.789 L45.3434,31.789 C46.7364,31.789 47.8644,30.662 47.8644,29.27 Z" style="stroke:none;fill-rule:nonzero;fill:#008000;fill-opacity:1;"/>
        </g>
        <g id="Shape4">
            <path id="shapePath4" d="M49.1744,6.472 L49.1744,6.121 C49.1744,4.729 48.0924,3.921 46.7574,4.315 L42.8244,4.771 L42.8244,10.58 L46.7974,9.827 C48.1094,9.367 49.1744,7.864 49.1744,6.472 Z" style="stroke:none;fill-rule:nonzero;fill:#008000;fill-opacity:1;"/>
        </g>
        <g id="Shape5">
            <path id="shapePath5" d="M34.1544,37.029 L39.4254,37.029 C40.8034,37.029 41.9214,35.911 41.9214,34.531 L41.9214,2.498 C41.9214,1.119 40.8034,0 39.4254,0 L22.6324,0 C21.2524,0 20.1374,1.119 20.1374,2.498 L20.1374,10.924 L20.1374,21.414 L23.5054,21.414 L23.5054,4.809 C23.5054,4.429 23.8144,4.121 24.1934,4.121 L37.8624,4.121 C38.2444,4.121 38.5504,4.429 38.5504,4.809 L38.5504,29.47 C38.5504,29.851 38.2434,30.158 37.8624,30.158 L25.6374,30.158 L25.6374,34.43 C25.5474,34.736 25.4534,34.989 25.4534,34.989 L29.8304,34.989 C29.5744,34.71 29.4144,34.341 29.4144,33.932 C29.4144,33.064 30.1184,32.359 30.9874,32.359 C31.8544,32.359 32.5574,33.064 32.5574,33.932 C32.5574,34.34 32.3984,34.709 32.1424,34.989 L34.5864,34.989 L34.3554,36.18 C34.3464,36.231 34.2804,36.551 34.1544,37.029 Z" style="stroke:none;fill-rule:nonzero;fill:#008000;fill-opacity:1;"/>
        </g>
        <g id="Shape6">
            <path id="shapePath6" d="M23.6124,46.317 C25.0764,45.586 27.1234,44.718 28.9254,43.424 C31.6554,41.463 32.6354,36.425 32.6354,36.425 L25.3684,36.425 C23.8554,39.891 20.7324,42.822 20.5764,42.967 C20.3844,43.146 20.1404,43.234 19.8974,43.234 C19.6294,43.234 19.3604,43.127 19.1644,42.914 C18.7884,42.51 18.8124,41.877 19.2164,41.501 C19.2554,41.466 22.9054,38.039 23.9214,34.585 L23.9214,29.059 L32.3904,29.059 C34.2464,29.059 35.7504,27.66 35.7504,25.935 C35.7504,24.21 34.2454,22.812 32.3904,22.812 L18.5324,22.812 L18.5324,13.046 L13.0634,16.728 C11.4724,17.682 9.63239,19.856 8.95439,21.583 L0.117386,45.502 C-0.265614,46.538 0.319386,47.378 1.42439,47.378 L19.9274,47.378 C21.0314,47.378 22.6244,46.81 23.6124,46.317 Z" style="stroke:none;fill-rule:nonzero;fill:#008000;fill-opacity:1;"/>
        </g>
    </g>
</svg>
