<?xml version="1.0"?>
<svg version="1.1" xmlns="http://www.w3.org/2000/svg" xmlns:xlink="http://www.w3.org/1999/xlink" width="21.7" height="26.1">
    <desc iVinci="yes" version="4.5" gridStep="20" showGrid="no" snapToGrid="no" codePlatform="0"/>
    <g id="Layer1" opacity="1">
        <g id="Shape1">
            <path id="shapePath1" d="M1.1005,16.428 C2.53274,15.552 3.34499,16.545 4.90966,17.289 C6.25459,17.929 7.75353,17.939 7.88498,17.136 C8.09687,15.839 8.05077,15.22 8.05077,13.457 C8.05077,12.056 7.61717,8.881 7.27481,6.482 C6.86279,3.595 6.71957,1.905 8.10962,1.772 C9.44376,1.644 9.51047,2.411 10.0176,6.332 C10.4061,9.338 11.0212,11.453 11.3282,11.391 C11.6353,11.329 11.1791,8.605 11.0673,5.828 C10.8681,0.859 11.1291,0.0780001 12.3553,0.0780001 C13.4118,0.0780001 13.6424,0.781 13.7797,5.828 C13.8513,8.453 14.1319,11.186 14.3497,11.186 C14.6773,11.186 14.9373,8.623 14.8872,5.845 C14.7921,0.651 15.6887,1.043 16.2282,1.043 C16.7599,1.043 17.6889,1.196 17.6595,6.149 C17.6409,9.045 17.6595,11.545 18.1961,11.545 C18.4354,11.545 18.822,9.211 18.822,6.939 C18.822,3.139 19.5371,3.139 20.1051,3.139 C20.6711,3.139 20.9693,3.839 20.9988,7.638 C21.0233,10.666 20.678,14.929 20.678,17.513 C20.678,23.802 18.6758,23.868 18.6758,26 L10.2972,26 C10.051,25.396 9.48104,25.042 8.10864,23.613 C6.72448,22.172 3.59024,19.415 1.11914,18.873 C-0.534794,18.511 0.21664,16.969 1.1005,16.428 Z" style="stroke:none;fill-rule:nonzero;fill:#000000;fill-opacity:1;"/>
        </g>
    </g>
</svg>
