<?xml version="1.0"?>
<svg version="1.1" id="Layer_1" xmlns="http://www.w3.org/2000/svg" xmlns:xlink="http://www.w3.org/1999/xlink" x="0px" y="0px"
	 width="22px" height="26px" viewBox="0 0 22 26" enable-background="new 0 0 21 26" xml:space="preserve">
    <desc iVinci="yes" version="4.5" gridStep="20" showGrid="no" snapToGrid="no" codePlatform="0"/>
    <g id="Layer1" opacity="1">
        <g id="Shape1">
            <path id="shapePath1" d="M1.11914,16.428 C2.57914,15.552 3.40714,16.545 5.00214,17.289 C6.37314,17.929 7.90114,17.939 8.03514,17.136 C8.25114,15.839 8.20414,15.22 8.20414,13.457 C8.20414,12.056 7.76214,8.881 7.41314,6.482 C6.99314,3.595 6.84714,1.905 8.26414,1.772 C9.62414,1.644 9.69214,2.411 10.2091,6.332 C10.6051,9.338 11.2321,11.453 11.5451,11.391 C11.8581,11.329 11.3931,8.605 11.2791,5.828 C11.0761,0.858999 11.3421,0.0779991 12.5921,0.0779991 C13.6691,0.0779991 13.9041,0.781 14.0441,5.828 C14.1171,8.453 14.4031,11.186 14.6251,11.186 C14.9591,11.186 15.2241,8.623 15.1731,5.845 C15.0761,0.650999 15.9901,1.043 16.5401,1.043 C17.0821,1.043 18.0291,1.196 17.9991,6.149 C17.9801,9.045 17.9991,11.545 18.5461,11.545 C18.7901,11.545 19.1841,9.211 19.1841,6.939 C19.1841,3.139 19.9131,3.139 20.4921,3.139 C21.0691,3.139 21.3731,3.839 21.4031,7.638 C21.4281,10.666 21.0761,14.929 21.0761,17.513 C21.0761,23.802 19.0351,23.868 19.0351,26 L10.4941,26 C10.2431,25.396 9.66214,25.042 8.26314,23.613 C6.85214,22.172 3.65714,19.415 1.13814,18.873 C-0.547858,18.511 0.218143,16.969 1.11914,16.428 Z" style="stroke:none;fill-rule:evenodd;fill:#000000;fill-opacity:1;"/>
        </g>
        <g id="Shape2">
            <path id="shapePath2" d="M11.9666,19.6237 C11.9963,20.1527 12.1211,20.5822 12.3411,20.9123 C12.7601,21.5301 13.4985,21.839 14.5565,21.839 C15.0304,21.839 15.4621,21.7713 15.8514,21.6359 C16.6047,21.3735 16.9813,20.9038 16.9813,20.2267 C16.9813,19.7189 16.8226,19.3571 16.5052,19.1413 C16.1836,18.9297 15.68,18.7456 14.9945,18.589 L13.7313,18.3034 C12.9061,18.1172 12.3221,17.9119 11.9793,17.6877 C11.3869,17.2983 11.0907,16.7165 11.0907,15.942 C11.0907,15.1042 11.3805,14.4165 11.9603,13.8791 C12.54,13.3416 13.361,13.0729 14.4232,13.0729 C15.4007,13.0729 16.2312,13.3088 16.9146,13.7807 C17.5981,14.2525 17.9398,15.0068 17.9398,16.0436 L16.7528,16.0436 C16.6893,15.5443 16.5539,15.1613 16.3465,14.8947 C15.9614,14.408 15.3076,14.1647 14.3851,14.1647 C13.6403,14.1647 13.105,14.3213 12.7791,14.6344 C12.4533,14.9476 12.2904,15.3115 12.2904,15.7262 C12.2904,16.1833 12.4808,16.5176 12.8616,16.7292 C13.1113,16.8646 13.6763,17.0338 14.5565,17.237 L15.8641,17.5353 C16.4946,17.6792 16.9813,17.876 17.3241,18.1256 C17.9165,18.5615 18.2127,19.1942 18.2127,20.0236 C18.2127,21.0561 17.8372,21.7946 17.086,22.2389 C16.3349,22.6833 15.4621,22.9054 14.4676,22.9054 C13.3081,22.9054 12.4004,22.6092 11.7445,22.0168 C11.0885,21.4285 10.7669,20.6308 10.7796,19.6237 L11.9666,19.6237 Z" style="stroke:none;fill-rule:nonzero;fill:#000000;fill-opacity:1;"/>
        </g>
        <g id="Shape3">
            <path id="shapePath3" d="M11.7842,20.0018 L11.0811,20.0018 L12.6221,17.7957 L11.1778,15.6981 L11.9073,15.6981 L13.0059,17.3446 L14.0957,15.6981 L14.7901,15.6981 L13.3457,17.7957 L14.8604,20.0018 L14.1368,20.0018 L12.9766,18.2323 L11.7842,20.0018 M15.4151,15.6981 L15.9981,15.6981 L15.9981,19.4891 L18.1778,19.4891 L18.1778,20.0018 L15.4151,20.0018 L15.4151,15.6981 Z" style="stroke:none;fill-rule:nonzero;fill:#f0eadf;fill-opacity:1;"/>
        </g>
    </g>
</svg>
