<?xml version="1.0"?>
<svg version="1.1" id="Layer_1" xmlns="http://www.w3.org/2000/svg" xmlns:xlink="http://www.w3.org/1999/xlink" x="0px" y="0px"
	 width="22px" height="26px" viewBox="0 0 22 26" enable-background="new 0 0 22 26" xml:space="preserve">
    <desc iVinci="yes" version="4.5" gridStep="20" showGrid="no" snapToGrid="no" codePlatform="0"/>
    <g id="Layer1" opacity="1">
        <g id="Shape1">
            <path id="shapePath1" d="M20.0386,16.35 C18.6064,15.474 17.7941,16.467 16.2294,17.211 C14.8845,17.851 13.3856,17.861 13.2541,17.058 C13.0422,15.761 13.0883,15.142 13.0883,13.379 C13.0883,11.978 13.5219,8.803 13.8643,6.404 C14.2763,3.517 14.4195,1.827 13.0295,1.694 C11.6953,1.566 11.6286,2.333 11.1215,6.254 C10.733,9.26 10.1179,11.375 9.81086,11.313 C9.50382,11.251 9.95997,8.527 10.0718,5.75 C10.2709,0.780999 10.01,-9.53674e-07 8.78377,-9.53674e-07 C7.72726,-9.53674e-07 7.49673,0.702999 7.35939,5.75 C7.28778,8.375 7.00722,11.108 6.78944,11.108 C6.46179,11.108 6.20183,8.545 6.25186,5.767 C6.34701,0.572999 5.4504,0.964999 4.91086,0.964999 C4.37916,0.964999 3.45017,1.118 3.4796,6.071 C3.49824,8.967 3.4796,11.467 2.943,11.467 C2.70365,11.467 2.31714,9.133 2.31714,6.861 C2.31714,3.061 1.602,3.061 1.03401,3.061 C0.467987,3.061 0.169767,3.761 0.140338,7.56 C0.115813,10.588 0.461121,14.851 0.461121,17.435 C0.461121,23.724 2.4633,23.79 2.4633,25.922 L10.8419,25.922 C11.0881,25.318 11.6581,24.964 13.0304,23.535 C14.4146,22.094 17.5489,19.337 20.0199,18.795 C21.6739,18.433 20.9225,16.891 20.0386,16.35 Z" style="stroke:none;fill-rule:nonzero;fill:#008000;fill-opacity:1;"/>
        </g>
    </g>
</svg>
