<?xml version="1.0"?>
<svg version="1.1" id="Layer_1" xmlns="http://www.w3.org/2000/svg" xmlns:xlink="http://www.w3.org/1999/xlink" x="0px" y="0px"
	 width="420px" height="512px" viewBox="0 0 420 512" enable-background="new 0 0 420 512" xml:space="preserve">
<svg version="1.1" xmlns="http://www.w3.org/2000/svg" xmlns:xlink="http://www.w3.org/1999/xlink" width="420" height="512">
    <desc iVinci="yes" version="4.5" gridStep="20" showGrid="no" snapToGrid="no" codePlatform="0"/>
    <g id="Layer1" opacity="1">
        <g id="Shape1">
            <path id="shapePath1" d="M348.2,272.046 C347.553,207.205 401.079,176.108 403.471,174.563 C373.396,130.553 326.546,124.524 309.851,123.827 C269.98,119.79 232.053,147.301 211.818,147.301 C191.634,147.301 160.409,124.424 127.342,125.025 C83.8843,125.671 43.8133,150.294 21.4363,189.215 C-23.7157,267.565 9.87326,383.635 53.8813,447.178 C75.3853,478.281 101.027,513.216 134.694,511.968 C167.115,510.674 179.375,490.989 218.572,490.989 C257.768,490.989 268.786,511.968 303.096,511.324 C337.984,510.676 360.087,479.625 381.443,448.426 C406.137,412.342 416.305,377.407 416.905,375.614 C416.13,375.26 348.874,349.495 348.2,272.046 M283.732,81.761 C301.601,60.082 313.662,30.005 310.372,0 C284.633,1.048 253.434,17.145 234.967,38.775 C218.397,57.963 203.893,88.588 207.78,117.993 C236.513,120.235 265.844,103.391 283.732,81.761 Z" style="stroke:none;fill-rule:evenodd;fill:#000000;fill-opacity:1;"/>
        </g>
    </g>
</svg>
