<?xml version="1.0" encoding="utf-8"?><svg xmlns="http://www.w3.org/2000/svg" xmlns:xlink="http://www.w3.org/1999/xlink" version="1.1" class="page" pageAlignment="none" x="0px" y="0px" width="185px" height="497px" viewBox="0 0 185 497" enable-background="new 0 0 185 497" xml:space="preserve"><defs/><style type="text/css"/><style type="text/css"/><g type="LAYER" name="workspace" id="workspace" locked="true"/><g id="Layer1"><g id="Shape1"><path id="shapePath1" width="185" height="394" stroke-miterlimit="3" stroke="none" fill="#000000" d="M41,476 C41,490 47.833,497 61.5,497 C75.167,497 82,490 82,476 L82,287 L103,287 L103,476 C103,490 109.834,497 123.5,497 C137.167,497 144,490 144,476 L144,154 L154,154 L154,270 C154,277.334 156.5,282.667 161.5,286 C166.5,289.333 171.667,289.333 177,286 C182.333,282.667 185,277.333 185,270 L185,145 C185,131.666 180.5,121.333 171.5,114 C162.5,106.667 150,103 134,103 L52,103 C36.667,103 24.167,106.333 14.5,113 C4.833,119.667 0,130 0,144 L0,277 C0,283 2.667,287.333 8,290 C13.333,292.667 18.5,292.667 23.5,290 C28.5,287.333 31,283 31,277 L31,154 L41,154 L41,476 Z "/></g><g id="Shape2"><path id="shapePath2" width="85" height="85" stroke-miterlimit="3" stroke="none" fill="#000000" d="M49,42.5 C49,54.167 53.167,64.167 61.5,72.5 C69.833,80.833 79.833,85 91.5,85 C103.167,85 113.167,80.833 121.5,72.5 C129.833,64.167 134,54 134,42 C134,30.665 129.833,20.832 121.5,12.5 C113.167,4.167 103.167,0 91.5,0 C79.833,0 69.833,4.167 61.5,12.5 C53.167,20.833 49,30.833 49,42.5 Z "/></g></g></svg>