<?xml version="1.0" encoding="iso-8859-1"?>
<!-- Generator: Adobe Illustrator 17.1.0, SVG Export Plug-In . SVG Version: 6.00 Build 0)  -->
<!DOCTYPE svg PUBLIC "-//W3C//DTD SVG 1.1//EN" "http://www.w3.org/Graphics/SVG/1.1/DTD/svg11.dtd">
<svg version="1.1" id="Capa_1" xmlns="http://www.w3.org/2000/svg" xmlns:xlink="http://www.w3.org/1999/xlink" x="0px" y="0px"
	 viewBox="0 0 64 64" style="enable-background:new 0 0 64 64;" xml:space="preserve">
<path d="M52.379,24.185c0-1.393-1.128-2.52-2.521-2.52h-2.52v5.46h2.52c1.393,0,2.521-1.128,2.521-2.52V24.185z"/>
<path d="M52.379,30.624c0-1.392-1.128-2.52-2.521-2.52h-2.52v5.459h2.52c1.393,0,2.521-1.128,2.521-2.519V30.624z"/>
<path d="M52.379,37.484v-0.42c0-1.392-1.128-2.52-2.521-2.52h-2.52v5.459h2.52C51.251,40.003,52.379,38.876,52.379,37.484z"/>
<path d="M53.689,14.686v-0.351c0-1.392-1.082-2.2-2.417-1.806l-3.933,0.456v5.809l3.973-0.753
	C52.624,17.581,53.689,16.078,53.689,14.686z"/>
<path d="M38.669,45.243h5.271c1.378,0,2.496-1.118,2.496-2.498V10.712c0-1.379-1.118-2.498-2.496-2.498H27.147
	c-1.38,0-2.495,1.119-2.495,2.498v8.426v10.49h3.368V13.023c0-0.38,0.309-0.688,0.688-0.688h13.669c0.382,0,0.688,0.308,0.688,0.688
	v24.661c0,0.381-0.307,0.688-0.688,0.688H30.152v4.272c-0.09,0.306-0.184,0.559-0.184,0.559h4.377
	c-0.256-0.279-0.416-0.648-0.416-1.057c0-0.868,0.704-1.573,1.573-1.573c0.867,0,1.57,0.705,1.57,1.573
	c0,0.408-0.159,0.777-0.415,1.057h2.444l-0.231,1.191C38.861,44.445,38.795,44.765,38.669,45.243z"/>
<path d="M28.127,54.531c1.464-0.731,3.511-1.599,5.313-2.893c2.73-1.961,3.71-6.999,3.71-6.999h-7.267
	c-1.513,3.466-4.636,6.397-4.792,6.542c-0.192,0.179-0.436,0.267-0.679,0.267c-0.268,0-0.537-0.107-0.733-0.32
	c-0.376-0.404-0.352-1.037,0.052-1.413c0.039-0.035,3.689-3.462,4.705-6.916v-5.526h8.469c1.856,0,3.36-1.399,3.36-3.124
	c0-1.725-1.505-3.123-3.36-3.123H23.047V21.26l-5.469,3.682c-1.591,0.954-3.431,3.128-4.109,4.855L4.632,53.716
	c-0.383,1.036,0.202,1.876,1.307,1.876h18.503C25.546,55.592,27.139,55.024,28.127,54.531z"/>
</svg>
