<svg xmlns="http://www.w3.org/2000/svg" xmlns:xlink="http://www.w3.org/1999/xlink" version="1.1" width="35" height="60"><rect id="backgroundrect" width="100%" height="100%" x="0" y="0" fill="none" stroke="none"/>
    <desc iVinci="yes" version="4.5" gridStep="20" showGrid="no" snapToGrid="no" codePlatform="0"/>
    
<g class="currentLayer"><title>Layer 1</title><g id="Layer1" opacity="1">
        <g id="Shape1">
            <path id="shapePath1" d="M-1.90735e-06,55.573 C-1.90735e-06,57.794 1.797,59.593 4.019,59.593 L31.044,59.593 C33.263,59.593 35.062,57.794 35.062,55.573 L35.062,4.02 C35.062,1.8 33.263,0 31.044,0 L4.019,0 C1.798,0 -1.90735e-06,1.8 -1.90735e-06,4.02 L-1.90735e-06,55.573 M17.464,57.139 C16.065,57.139 14.933,56.008 14.933,54.61 C14.933,53.213 16.065,52.081 17.464,52.081 C18.858,52.081 19.993,53.213 19.993,54.61 C19.994,56.008 18.858,57.139 17.464,57.139 M5.423,7.739 C5.423,7.128 5.918,6.633 6.53,6.633 L28.529,6.633 C29.141,6.633 29.636,7.128 29.636,7.739 L29.636,47.427 C29.636,48.038 29.141,48.534 28.529,48.534 L6.53,48.534 C5.918,48.534 5.423,48.038 5.423,47.427 L5.423,7.739 Z"/>
        </g>
        <g id="Shape2">
            <path id="shapePath2" d="M10.311,27.241 C11.409,27.241 12.377,26.679 12.945,25.828 L17.282,28.244 L17.282,28.978 C15.654,29.108 14.365,30.459 14.365,32.119 C14.365,33.779 15.654,35.13 17.282,35.26 L17.282,37.022 C15.654,37.152 14.365,38.503 14.365,40.163 C14.365,41.909 15.785,43.33 17.532,43.33 C19.278,43.33 20.698,41.91 20.698,40.163 C20.698,39.319 20.361,38.555 19.821,37.987 L22.839,34.624 C23.372,35.032 24.031,35.284 24.752,35.284 C26.498,35.284 27.919,33.864 27.919,32.117 C27.919,30.371 26.499,28.95 24.752,28.95 C23.654,28.95 22.687,29.512 22.118,30.363 L17.781,27.947 L17.781,27.213 C19.325,27.09 20.549,25.865 20.672,24.322 L21.61,24.322 C21.74,25.95 23.091,27.239 24.751,27.239 C26.497,27.239 27.918,25.819 27.918,24.072 C27.918,22.326 26.498,20.905 24.751,20.905 C23.091,20.905 21.74,22.194 21.61,23.822 L20.672,23.822 C20.542,22.194 19.191,20.905 17.531,20.905 C15.785,20.905 14.364,22.325 14.364,24.072 C14.364,25.732 15.653,27.083 17.281,27.213 L17.281,27.669 L13.183,25.386 C13.367,24.985 13.477,24.542 13.477,24.072 C13.477,22.326 12.057,20.905 10.31,20.905 C8.563,20.905 7.144,22.325 7.144,24.072 C7.144,25.82 8.565,27.241 10.311,27.241 M17.781,33.083 C18.217,32.969 18.545,32.591 18.545,32.119 C18.545,31.647 18.217,31.269 17.781,31.155 L17.781,30.953 L17.92,30.953 C18.154,30.953 18.226,30.805 18.078,30.622 L17.798,30.275 C17.793,30.269 17.786,30.267 17.781,30.261 L17.781,29.977 C18.857,30.103 19.697,31.009 19.697,32.118 C19.697,33.227 18.856,34.134 17.781,34.259 L17.781,33.083 M15.365,32.119 C15.365,31.01 16.206,30.103 17.282,29.978 L17.282,30.262 C17.277,30.268 17.27,30.269 17.265,30.276 L16.985,30.623 C16.839,30.806 16.909,30.954 17.143,30.954 L17.282,30.954 L17.282,31.156 C16.846,31.27 16.518,31.648 16.518,32.12 C16.518,32.592 16.846,32.97 17.282,33.084 L17.282,34.262 C16.205,34.134 15.365,33.228 15.365,32.119 M18.505,38.434 C18.324,38.284 18.175,38.353 18.172,38.588 L18.167,39.034 C18.167,39.048 18.173,39.059 18.174,39.072 L17.992,39.274 C17.925,39.239 17.854,39.219 17.78,39.199 L17.78,38.021 C18.149,38.064 18.49,38.193 18.778,38.397 L18.643,38.547 L18.505,38.434 M19.698,40.164 C19.698,41.359 18.726,42.331 17.532,42.331 C16.338,42.331 15.365,41.359 15.365,40.164 C15.365,39.055 16.206,38.149 17.282,38.023 L17.282,39.201 C16.846,39.315 16.518,39.693 16.518,40.165 C16.518,40.725 16.972,41.179 17.532,41.179 C18.092,41.179 18.546,40.725 18.546,40.165 C18.546,39.957 18.469,39.776 18.361,39.615 L18.576,39.375 C18.577,39.375 18.577,39.375 18.578,39.375 L19.016,39.285 C19.246,39.239 19.286,39.079 19.105,38.93 L19.031,38.869 L19.149,38.738 C19.486,39.119 19.698,39.615 19.698,40.164 M22.586,32.119 C22.586,31.826 22.646,31.546 22.752,31.291 L22.94,31.395 L22.877,31.51 C22.765,31.716 22.862,31.849 23.093,31.806 L23.531,31.725 L23.789,31.869 C23.768,31.951 23.738,32.031 23.738,32.12 C23.738,32.328 23.815,32.509 23.923,32.67 L23.136,33.547 C22.797,33.164 22.586,32.668 22.586,32.119 M24.752,29.952 C25.947,29.952 26.919,30.924 26.919,32.119 C26.919,33.314 25.947,34.286 24.752,34.286 C24.286,34.286 23.857,34.135 23.504,33.884 L24.29,33.008 C24.43,33.081 24.583,33.133 24.752,33.133 C25.312,33.133 25.766,32.679 25.766,32.119 C25.766,31.559 25.312,31.105 24.752,31.105 C24.462,31.105 24.204,31.23 24.019,31.425 L23.793,31.299 C23.789,31.284 23.791,31.271 23.785,31.256 L23.613,30.844 C23.522,30.628 23.359,30.62 23.247,30.826 L23.177,30.955 L22.999,30.856 C23.393,30.311 24.03,29.952 24.752,29.952 M21.88,30.805 C21.695,31.206 21.586,31.649 21.586,32.119 C21.586,32.963 21.923,33.727 22.463,34.295 L19.445,37.658 C18.975,37.298 18.405,37.073 17.782,37.023 L17.782,35.26 C19.409,35.13 20.698,33.779 20.698,32.119 C20.698,30.459 19.409,29.108 17.782,28.978 L17.782,28.522 L21.88,30.805 M17.781,26.215 L17.781,25.037 C18.135,24.945 18.402,24.677 18.495,24.323 L18.758,24.323 L18.758,24.462 C18.758,24.696 18.906,24.767 19.089,24.62 L19.436,24.34 C19.442,24.335 19.444,24.329 19.449,24.324 L19.672,24.324 C19.557,25.317 18.774,26.099 17.781,26.215 M24.752,21.908 C25.947,21.908 26.919,22.88 26.919,24.075 C26.919,25.27 25.947,26.242 24.752,26.242 C23.643,26.242 22.736,25.401 22.611,24.325 L22.83,24.325 L22.83,24.464 C22.83,24.698 22.978,24.769 23.161,24.622 L23.508,24.342 C23.514,24.337 23.516,24.331 23.521,24.326 L23.789,24.326 C23.903,24.762 24.281,25.09 24.753,25.09 C25.313,25.09 25.767,24.636 25.767,24.076 C25.767,23.516 25.313,23.062 24.753,23.062 C24.282,23.062 23.903,23.39 23.789,23.826 L23.522,23.826 C23.516,23.821 23.514,23.814 23.508,23.809 L23.161,23.529 C22.978,23.382 22.83,23.453 22.83,23.687 L22.83,23.826 L22.611,23.826 C22.736,22.748 23.643,21.908 24.752,21.908 M15.365,24.074 C15.365,22.879 16.337,21.907 17.532,21.907 C18.641,21.907 19.547,22.748 19.673,23.824 L19.45,23.824 C19.444,23.819 19.442,23.812 19.436,23.807 L19.089,23.527 C18.906,23.38 18.758,23.451 18.758,23.685 L18.758,23.824 L18.495,23.824 C18.381,23.388 18.003,23.06 17.531,23.06 C16.971,23.06 16.517,23.514 16.517,24.074 C16.517,24.545 16.845,24.924 17.281,25.038 L17.281,26.216 C16.205,26.09 15.365,25.183 15.365,24.074 M10.311,21.908 C11.506,21.908 12.478,22.88 12.478,24.075 C12.478,24.368 12.418,24.648 12.312,24.903 L12.048,24.756 C12.043,24.74 12.045,24.725 12.039,24.709 L11.867,24.297 C11.776,24.081 11.613,24.073 11.501,24.279 L11.428,24.41 L11.274,24.324 C11.295,24.242 11.325,24.162 11.325,24.073 C11.325,23.513 10.871,23.059 10.311,23.059 C9.751,23.059 9.297,23.513 9.297,24.073 C9.297,24.633 9.751,25.087 10.311,25.087 C10.601,25.087 10.859,24.962 11.044,24.767 L11.191,24.849 L11.13,24.961 C11.018,25.167 11.115,25.3 11.346,25.257 L11.779,25.177 L12.064,25.336 C11.67,25.881 11.033,26.24 10.311,26.24 C9.116,26.24 8.145,25.268 8.145,24.073 C8.144,22.879 9.116,21.908 10.311,21.908 Z"/>
        </g>
        <g id="Shape3">
            <path id="shapePath3" d="M10.311,35.285 C12.057,35.285 13.478,33.865 13.478,32.118 C13.478,30.372 12.058,28.951 10.311,28.951 C8.564,28.951 7.145,30.371 7.145,32.118 C7.144,33.865 8.565,35.285 10.311,35.285 M10.311,29.952 C11.506,29.952 12.478,30.924 12.478,32.119 C12.478,33.314 11.506,34.286 10.311,34.286 C9.116,34.286 8.145,33.314 8.145,32.119 C8.145,30.924 9.116,29.952 10.311,29.952 Z"/>
        </g>
        <g id="Shape4">
            <path id="shapePath4" d="M11.325,32.119 C11.325,32.679 10.871,33.133 10.311,33.133 C9.75098,33.133 9.297,32.679 9.297,32.119 C9.297,31.559 9.75098,31.105 10.311,31.105 C10.871,31.105 11.325,31.559 11.325,32.119 Z"/>
        </g>
        <g id="Shape5">
            <path id="shapePath5" d="M10.311,43.33 C12.057,43.33 13.478,41.91 13.478,40.163 C13.478,38.417 12.058,36.996 10.311,36.996 C8.564,36.996 7.145,38.416 7.145,40.163 C7.144,41.91 8.565,43.33 10.311,43.33 M10.311,37.997 C11.506,37.997 12.478,38.969 12.478,40.164 C12.478,41.359 11.506,42.331 10.311,42.331 C9.116,42.331 8.145,41.359 8.145,40.164 C8.144,38.969 9.116,37.997 10.311,37.997 Z"/>
        </g>
        <g id="Shape6">
            <path id="shapePath6" d="M11.325,40.164 C11.325,40.724 10.871,41.178 10.311,41.178 C9.75098,41.178 9.297,40.724 9.297,40.164 C9.297,39.604 9.75098,39.15 10.311,39.15 C10.871,39.15 11.325,39.604 11.325,40.164 Z"/>
        </g>
        <g id="Shape7">
            <path id="shapePath7" d="M24.752,36.997 C23.006,36.997 21.585,38.417 21.585,40.164 C21.585,41.91 23.005,43.331 24.752,43.331 C26.499,43.331 27.919,41.911 27.919,40.164 C27.919,38.418 26.498,36.997 24.752,36.997 M24.752,42.33 C23.557,42.33 22.585,41.358 22.585,40.163 C22.585,38.968 23.557,37.996 24.752,37.996 C25.947,37.996 26.919,38.968 26.919,40.163 C26.919,41.359 25.947,42.33 24.752,42.33 Z"/>
        </g>
        <g id="Shape8">
            <path id="shapePath8" d="M25.766,40.164 C25.766,40.724 25.312,41.178 24.752,41.178 C24.192,41.178 23.738,40.724 23.738,40.164 C23.738,39.604 24.192,39.15 24.752,39.15 C25.312,39.15 25.766,39.604 25.766,40.164 Z"/>
        </g>
    </g><path fill="#d50b0b" fill-opacity="1" stroke="#f41111" stroke-opacity="1" stroke-width="2" stroke-dasharray="none" stroke-linejoin="round" stroke-linecap="butt" stroke-dashoffset="" fill-rule="nonzero" opacity="1" marker-start="" marker-mid="" marker-end="" d="M0.03061224489795933,16.163265306122447L33.90816326530612,45.877551020408156" id="svg_1"/><path fill="#d50b0b" fill-opacity="1" stroke="#f41111" stroke-opacity="1" stroke-width="2" stroke-dasharray="none" stroke-linejoin="round" stroke-linecap="butt" stroke-dashoffset="" fill-rule="nonzero" opacity="1" marker-start="" marker-mid="" marker-end="" d="M34.724489795918366,16.08163265306122L0.7653061224489761,46.04081632653061" id="svg_3"/></g></svg>