<?xml version="1.0"?>
<svg version="1.1" xmlns="http://www.w3.org/2000/svg" xmlns:xlink="http://www.w3.org/1999/xlink" width="81" height="30">
    <desc iVinci="yes" version="4.5" gridStep="20" showGrid="no" snapToGrid="no" codePlatform="0"/>
    <g id="Layer1" opacity="1">
        <g id="Shape1">
            <path id="shapePath1" d="M6.69824,14.7477 C6.69824,12.8518 6.98177,11.2607 7.54883,9.97422 C7.972,9.0263 8.54964,8.17572 9.28174,7.42246 C10.0138,6.66921 10.8158,6.11061 11.6875,5.74668 C12.847,5.25579 14.1842,5.01035 15.6992,5.01035 C18.4414,5.01035 20.6356,5.86094 22.2817,7.56211 C23.9279,9.26328 24.751,11.6288 24.751,14.6588 C24.751,17.6633 23.9342,20.0141 22.3008,21.711 C20.6673,23.408 18.4837,24.2564 15.75,24.2564 C12.9824,24.2564 10.7819,23.4122 9.14844,21.7237 C7.51497,20.0353 6.69824,17.7099 6.69824,14.7477 M10.5703,14.6207 C10.5703,16.7281 11.057,18.3256 12.0303,19.4132 C13.0036,20.5007 14.2393,21.0445 15.7373,21.0445 C17.2354,21.0445 18.4647,20.505 19.4253,19.4259 C20.3859,18.3468 20.8662,16.7281 20.8662,14.5699 C20.8662,12.4371 20.3986,10.846 19.4634,9.79648 C18.5282,8.74701 17.2861,8.22227 15.7373,8.22227 C14.1885,8.22227 12.9401,8.75335 11.9922,9.81553 C11.0443,10.8777 10.5703,12.4794 10.5703,14.6207 M33.8359,10.4566 L33.8359,13.3004 L31.3984,13.3004 L31.3984,18.734 C31.3984,19.8342 31.4217,20.4754 31.4683,20.6573 C31.5148,20.8393 31.6206,20.9895 31.7856,21.108 C31.9507,21.2265 32.1517,21.2857 32.3887,21.2857 C32.7188,21.2857 33.1969,21.1715 33.8232,20.943 L34.1279,23.7105 C33.2985,24.066 32.3591,24.2438 31.3096,24.2438 C30.6663,24.2438 30.0866,24.1358 29.5703,23.92 C29.054,23.7042 28.6753,23.4249 28.4341,23.0821 C28.1929,22.7394 28.0257,22.276 27.9326,21.692 C27.8564,21.2773 27.8184,20.4394 27.8184,19.1783 L27.8184,13.3004 L26.1807,13.3004 L26.1807,10.4566 L27.8184,10.4566 L27.8184,7.77793 L31.3984,5.6959 L31.3984,10.4566 L33.8359,10.4566 M39.8643,5.32773 L39.8643,12.1705 C41.0153,10.8248 42.3906,10.152 43.9902,10.152 C44.8112,10.152 45.5518,10.3043 46.2119,10.609 C46.8721,10.9137 47.3693,11.303 47.7036,11.777 C48.0379,12.2509 48.2664,12.7757 48.3892,13.3512 C48.5119,13.9267 48.5732,14.8196 48.5732,16.0299 L48.5732,23.9391 L45.0059,23.9391 L45.0059,16.817 C45.0059,15.4036 44.9382,14.5064 44.8027,14.1256 C44.6673,13.7447 44.4282,13.4422 44.0854,13.2179 C43.7427,12.9936 43.3132,12.8814 42.7969,12.8814 C42.2044,12.8814 41.6755,13.0253 41.21,13.3131 C40.7445,13.6008 40.4038,14.0346 40.188,14.6144 C39.9722,15.1941 39.8643,16.051 39.8643,17.1852 L39.8643,23.9391 L36.2969,23.9391 L36.2969,5.32773 L39.8643,5.32773 M59.9922,19.648 L63.5469,20.2447 C63.0898,21.5481 62.3683,22.5405 61.3823,23.2218 C60.3963,23.9031 59.1628,24.2438 57.6816,24.2438 C55.3372,24.2438 53.6022,23.4778 52.4766,21.9459 C51.5879,20.7187 51.1436,19.1699 51.1436,17.2994 C51.1436,15.065 51.7275,13.3152 52.8955,12.0499 C54.0635,10.7846 55.5404,10.152 57.3262,10.152 C59.332,10.152 60.9147,10.8142 62.0742,12.1388 C63.2337,13.4633 63.7881,15.4924 63.7373,18.2262 L54.7998,18.2262 C54.8252,19.2841 55.113,20.1072 55.6631,20.6954 C56.2132,21.2836 56.8988,21.5777 57.7197,21.5777 C58.2783,21.5777 58.748,21.4254 59.1289,21.1207 C59.5098,20.816 59.7975,20.3251 59.9922,19.648 M60.1953,16.0426 C60.1699,15.01 59.9033,14.225 59.3955,13.6876 C58.8877,13.1502 58.2699,12.8814 57.542,12.8814 C56.7633,12.8814 56.1201,13.165 55.6123,13.732 C55.1045,14.2991 54.8548,15.0693 54.8633,16.0426 L60.1953,16.0426 M70.0527,23.9391 L66.4854,23.9391 L66.4854,10.4566 L69.7988,10.4566 L69.7988,12.3736 C70.3659,11.468 70.8758,10.8714 71.3286,10.5836 C71.7814,10.2958 72.2956,10.152 72.8711,10.152 C73.6836,10.152 74.4665,10.3762 75.2197,10.8248 L74.1152,13.9352 C73.5143,13.5458 72.9557,13.3512 72.4395,13.3512 C71.9401,13.3512 71.5169,13.4887 71.1699,13.7638 C70.8229,14.0388 70.55,14.5361 70.3511,15.2555 C70.1522,15.9749 70.0527,17.4814 70.0527,19.775 L70.0527,23.9391 Z" style="stroke:none;fill-rule:nonzero;fill:#000000;fill-opacity:1;"/>
        </g>
    </g>
</svg>
