<?xml version="1.0"?>
<svg version="1.1" xmlns="http://www.w3.org/2000/svg" xmlns:xlink="http://www.w3.org/1999/xlink" width="79" height="23">
    <desc iVinci="yes" version="4.5" gridStep="20" showGrid="no" snapToGrid="no" codePlatform="0"/>
    <g id="Layer1" opacity="1">
        <g id="Shape1">
            <path id="shapePath1" d="M14.6118,17.0508 C15.6616,15.7324 16.1865,13.8574 16.1865,11.4258 C16.1865,9.00391 15.6616,7.13135 14.6118,5.80811 C13.562,4.48486 12.1436,3.82324 10.3564,3.82324 C8.56934,3.82324 7.14355,4.48242 6.0791,5.80078 C5.01465,7.11914 4.48242,8.99414 4.48242,11.4258 C4.48242,13.8574 5.01465,15.7324 6.0791,17.0508 C7.14355,18.3691 8.56934,19.0283 10.3564,19.0283 C12.1436,19.0283 13.562,18.3691 14.6118,17.0508 M17.4316,20.332 C15.8008,22.0117 13.4424,22.8516 10.3564,22.8516 C7.27051,22.8516 4.91211,22.0117 3.28125,20.332 C1.09375,18.2715 0,15.3027 0,11.4258 C0,7.4707 1.09375,4.50195 3.28125,2.51953 C4.91211,0.839844 7.27051,0 10.3564,0 C13.4424,0 15.8008,0.839844 17.4316,2.51953 C19.6094,4.50195 20.6982,7.4707 20.6982,11.4258 C20.6982,15.3027 19.6094,18.2715 17.4316,20.332 M22.1562,9.4043 L22.1562,6.43066 L24.3828,6.43066 L24.3828,1.97754 L28.5137,1.97754 L28.5137,6.43066 L31.1064,6.43066 L31.1064,9.4043 L28.5137,9.4043 L28.5137,17.8418 C28.5137,18.4961 28.5967,18.9038 28.7627,19.0649 C28.9287,19.2261 29.4365,19.3066 30.2861,19.3066 C30.4131,19.3066 30.5474,19.3042 30.689,19.2993 C30.8306,19.2944 30.9697,19.2871 31.1064,19.2773 L31.1064,22.3975 L29.1289,22.4707 C27.1562,22.5391 25.8086,22.1973 25.0859,21.4453 C24.6172,20.9668 24.3828,20.2295 24.3828,19.2334 L24.3828,9.4043 L22.1562,9.4043 M45.2729,6.38672 C46.0786,6.72852 46.7402,7.25098 47.2578,7.9541 C47.6973,8.5498 47.9658,9.1626 48.0635,9.79248 C48.1611,10.4224 48.21,11.4502 48.21,12.876 L48.21,22.251 L43.9473,22.251 L43.9473,12.5391 C43.9473,11.6797 43.8008,10.9863 43.5078,10.459 C43.127,9.7168 42.4043,9.3457 41.3398,9.3457 C40.2363,9.3457 39.3989,9.71436 38.8276,10.4517 C38.2563,11.189 37.9707,12.2412 37.9707,13.6084 L37.9707,22.251 L33.8105,22.251 L33.8105,0.732422 L37.9707,0.732422 L37.9707,8.36426 C38.5762,7.43652 39.2769,6.78955 40.0728,6.42334 C40.8687,6.05713 41.7061,5.87402 42.585,5.87402 C43.5713,5.87402 44.4673,6.04492 45.2729,6.38672 M56.144,10.21 C55.6118,10.8154 55.2773,11.6357 55.1406,12.6709 L61.6299,12.6709 C61.5615,11.5674 61.2271,10.73 60.6265,10.1587 C60.0259,9.5874 59.2812,9.30176 58.3926,9.30176 C57.4258,9.30176 56.6763,9.60449 56.144,10.21 M61.9814,6.60645 C63.0459,7.10449 63.9248,7.89062 64.6182,8.96484 C65.2432,9.91211 65.6484,11.0107 65.834,12.2607 C65.9414,12.9932 65.9854,14.0479 65.9658,15.4248 L55.0381,15.4248 C55.0967,17.0264 55.5996,18.1494 56.5469,18.7939 C57.123,19.1943 57.8164,19.3945 58.627,19.3945 C59.4863,19.3945 60.1846,19.1504 60.7217,18.6621 C61.0146,18.3984 61.2734,18.0322 61.498,17.5635 L65.7607,17.5635 C65.6533,18.5107 65.1602,19.4727 64.2812,20.4492 C62.9141,22.002 61,22.7783 58.5391,22.7783 C56.5078,22.7783 54.7158,22.124 53.1631,20.8154 C51.6104,19.5068 50.834,17.3779 50.834,14.4287 C50.834,11.665 51.5347,9.5459 52.936,8.07129 C54.3374,6.59668 56.1562,5.85938 58.3926,5.85938 C59.7207,5.85938 60.917,6.1084 61.9814,6.60645 M77.6353,5.91064 C77.689,5.91553 77.8086,5.92285 77.9941,5.93262 L77.9941,10.21 C77.7305,10.1807 77.4961,10.1611 77.291,10.1514 C77.0859,10.1416 76.9199,10.1367 76.793,10.1367 C75.1133,10.1367 73.9854,10.6836 73.4092,11.7773 C73.0869,12.3926 72.9258,13.3398 72.9258,14.6191 L72.9258,22.251 L68.7217,22.251 L68.7217,6.28418 L72.7061,6.28418 L72.7061,9.06738 C73.3506,8.00293 73.9121,7.27539 74.3906,6.88477 C75.1719,6.23047 76.1875,5.90332 77.4375,5.90332 C77.5156,5.90332 77.5815,5.90576 77.6353,5.91064 Z" style="stroke:none;fill-rule:nonzero;fill:#000000;fill-opacity:1;"/>
        </g>
    </g>
</svg>
