<?xml version="1.0"?>
<svg version="1.1" id="Layer_1" xmlns="http://www.w3.org/2000/svg" xmlns:xlink="http://www.w3.org/1999/xlink" x="0px" y="0px"
	 width="143px" height="25px" viewBox="0 0 143 25" enable-background="new 0 0 143 25" xml:space="preserve">
    <desc iVinci="yes" version="4.5" gridStep="20" showGrid="no" snapToGrid="no" codePlatform="0"/>
    <g id="Layer1" opacity="1">
        <g id="Shape1">
            <path id="shapePath1" d="M13.5346,5.48535 C12.9438,5.00683 12.1162,4.76757 11.0517,4.76757 L6.84763,4.76757 L6.84763,11.125 L11.0517,11.125 C12.1162,11.125 12.9438,10.8662 13.5346,10.3486 C14.1255,9.83105 14.4209,9.01074 14.4209,7.88769 C14.4209,6.76465 14.1255,5.96386 13.5346,5.48535 M16.955,13.2637 C15.666,14.3184 13.8252,14.8457 11.4326,14.8457 L6.84763,14.8457 L6.84763,22.6094 L2.3652,22.6094 L2.3652,1.01757 L11.7695,1.01757 C13.9375,1.01757 15.666,1.57422 16.955,2.6875 C18.2441,3.80078 18.8886,5.52441 18.8886,7.8584 C18.8886,10.4072 18.2441,12.209 16.955,13.2637 M30.7295,14.8457 C30.4658,15.0117 30.1997,15.146 29.9311,15.2485 C29.6626,15.3511 29.2939,15.4463 28.8252,15.5342 L27.8877,15.71 C27.0088,15.8662 26.3789,16.0566 25.998,16.2812 C25.3535,16.6621 25.0312,17.2529 25.0312,18.0537 C25.0312,18.7666 25.229,19.2817 25.6245,19.5991 C26.02,19.9165 26.5009,20.0752 27.0674,20.0752 C27.9658,20.0752 28.7934,19.8115 29.5503,19.2842 C30.3071,18.7568 30.7002,17.7949 30.7295,16.3984 L30.7295,14.8457 M28.1953,12.8975 C28.9668,12.7998 29.5185,12.6777 29.8506,12.5312 C30.4463,12.2773 30.7441,11.8818 30.7441,11.3447 C30.7441,10.6904 30.5171,10.2388 30.063,9.98974 C29.6089,9.74072 28.9424,9.61621 28.0634,9.61621 C27.0771,9.61621 26.3789,9.86035 25.9687,10.3486 C25.6758,10.71 25.4804,11.1982 25.3828,11.8135 L21.3545,11.8135 C21.4424,10.417 21.833,9.26953 22.5263,8.37109 C23.6299,6.96484 25.5244,6.26172 28.2099,6.26172 C29.958,6.26172 31.5107,6.6084 32.8681,7.30175 C34.2256,7.99511 34.9043,9.30371 34.9043,11.2275 L34.9043,18.5518 C34.9043,19.0596 34.914,19.6748 34.9336,20.3975 C34.9629,20.9443 35.0459,21.3154 35.1826,21.5107 C35.3193,21.7061 35.5244,21.8672 35.7978,21.9941 L35.7978,22.6094 L31.2568,22.6094 C31.1299,22.2871 31.042,21.9844 30.9931,21.7012 C30.9443,21.418 30.9052,21.0957 30.8759,20.7344 C30.2998,21.3594 29.6357,21.8916 28.8838,22.3311 C27.9853,22.8486 26.9697,23.1074 25.8369,23.1074 C24.3916,23.1074 23.1977,22.6948 22.2553,21.8696 C21.313,21.0444 20.8418,19.875 20.8418,18.3613 C20.8418,16.3984 21.5986,14.9775 23.1123,14.0986 C23.9424,13.6201 25.1631,13.2783 26.7744,13.0732 L28.1953,12.8975 M41.8496,17.5117 C41.9375,18.2539 42.1279,18.7812 42.4209,19.0937 C42.9384,19.6504 43.8955,19.9287 45.292,19.9287 C46.1123,19.9287 46.7641,19.8066 47.2475,19.5625 C47.7309,19.3184 47.9726,18.9521 47.9726,18.4639 C47.9726,17.9951 47.7773,17.6387 47.3867,17.3945 C46.9961,17.1504 45.5459,16.7305 43.0361,16.1348 C41.2295,15.6855 39.9551,15.124 39.2129,14.4502 C38.4707,13.7861 38.0996,12.8291 38.0996,11.5791 C38.0996,10.1045 38.6782,8.8374 39.8354,7.77783 C40.9926,6.71826 42.6211,6.18847 44.7207,6.18847 C46.7129,6.18847 48.3364,6.58642 49.5913,7.38232 C50.8462,8.17822 51.5664,9.55273 51.7519,11.5059 L47.5771,11.5059 C47.5185,10.9687 47.3672,10.5439 47.123,10.2314 C46.664,9.66504 45.8828,9.38183 44.7793,9.38183 C43.8711,9.38183 43.2241,9.52343 42.8384,9.80664 C42.4526,10.0898 42.2597,10.4219 42.2597,10.8027 C42.2597,11.2812 42.4648,11.6279 42.875,11.8428 C43.2851,12.0674 44.7353,12.4531 47.2256,13 C48.8857,13.3906 50.1308,13.9814 50.9609,14.7725 C51.7812,15.5732 52.1914,16.5742 52.1914,17.7754 C52.1914,19.3574 51.603,20.6489 50.4262,21.6499 C49.2495,22.6509 47.4306,23.1514 44.9697,23.1514 C42.4599,23.1514 40.6069,22.6216 39.4106,21.562 C38.2143,20.5024 37.6162,19.1523 37.6162,17.5117 L41.8496,17.5117 M58.5215,17.5117 C58.6094,18.2539 58.7998,18.7812 59.0928,19.0937 C59.6103,19.6504 60.5674,19.9287 61.9638,19.9287 C62.7842,19.9287 63.436,19.8066 63.9194,19.5625 C64.4028,19.3184 64.6445,18.9521 64.6445,18.4639 C64.6445,17.9951 64.4492,17.6387 64.0586,17.3945 C63.6679,17.1504 62.2178,16.7305 59.708,16.1348 C57.9013,15.6855 56.6269,15.124 55.8847,14.4502 C55.1426,13.7861 54.7715,12.8291 54.7715,11.5791 C54.7715,10.1045 55.3501,8.8374 56.5073,7.77783 C57.6645,6.71826 59.2929,6.18847 61.3926,6.18847 C63.3847,6.18847 65.0083,6.58642 66.2632,7.38232 C67.518,8.17822 68.2383,9.55273 68.4238,11.5059 L64.249,11.5059 C64.1904,10.9687 64.039,10.5439 63.7949,10.2314 C63.3359,9.66504 62.5547,9.38183 61.4511,9.38183 C60.5429,9.38183 59.896,9.52343 59.5102,9.80664 C59.1245,10.0898 58.9316,10.4219 58.9316,10.8027 C58.9316,11.2812 59.1367,11.6279 59.5469,11.8428 C59.957,12.0674 61.4072,12.4531 63.8974,13 C65.5576,13.3906 66.8027,13.9814 67.6328,14.7725 C68.4531,15.5732 68.8633,16.5742 68.8633,17.7754 C68.8633,19.3574 68.2749,20.6489 67.0981,21.6499 C65.9214,22.6509 64.1025,23.1514 61.6416,23.1514 C59.1318,23.1514 57.2788,22.6216 56.0825,21.562 C54.8862,20.5024 54.2881,19.1523 54.2881,17.5117 L58.5215,17.5117 M79.4707,6.64258 L83.7041,6.64258 L86.1357,18.1416 L88.626,6.64258 L92.9765,6.64258 L88.3476,22.6094 L84.0556,22.6094 L81.5508,10.9785 L79.0166,22.6094 L74.6806,22.6094 L70.1982,6.64258 L74.6806,6.64258 L77.1709,18.0977 L79.4707,6.64258 M105.245,18.3613 C105.899,17.4922 106.227,16.2568 106.227,14.6553 C106.227,13.0537 105.899,11.8208 105.245,10.9565 C104.591,10.0923 103.653,9.66015 102.433,9.66015 C101.212,9.66015 100.272,10.0923 99.6128,10.9565 C98.9536,11.8208 98.624,13.0537 98.624,14.6553 C98.624,16.2568 98.9536,17.4922 99.6128,18.3613 C100.272,19.2305 101.212,19.665 102.433,19.665 C103.653,19.665 104.591,19.2305 105.245,18.3613 M108.585,20.6685 C107.237,22.3335 105.191,23.166 102.447,23.166 C99.7031,23.166 97.6572,22.3335 96.3096,20.6685 C94.9619,19.0034 94.2881,16.999 94.2881,14.6553 C94.2881,12.3506 94.9619,10.3535 96.3096,8.66406 C97.6572,6.97461 99.7031,6.12988 102.447,6.12988 C105.191,6.12988 107.237,6.97461 108.585,8.66406 C109.933,10.3535 110.606,12.3506 110.606,14.6553 C110.606,16.999 109.933,19.0034 108.585,20.6685 M122.452,6.26904 C122.505,6.27392 122.625,6.28125 122.811,6.29101 L122.811,10.5684 C122.547,10.5391 122.312,10.5195 122.107,10.5098 C121.902,10.5 121.736,10.4951 121.609,10.4951 C119.93,10.4951 118.802,11.042 118.226,12.1357 C117.903,12.751 117.742,13.6982 117.742,14.9775 L117.742,22.6094 L113.538,22.6094 L113.538,6.64258 L117.522,6.64258 L117.522,9.42578 C118.167,8.36133 118.729,7.63379 119.207,7.24316 C119.988,6.58886 121.004,6.26172 122.254,6.26172 C122.332,6.26172 122.398,6.26416 122.452,6.26904 M133.721,6.89892 C134.473,7.32373 135.083,7.91211 135.552,8.66406 L135.552,1.04687 L139.785,1.04687 L139.785,22.6094 L135.728,22.6094 L135.728,20.3975 C135.132,21.3447 134.453,22.0332 133.691,22.4629 C132.93,22.8926 131.982,23.1074 130.85,23.1074 C128.984,23.1074 127.415,22.353 126.14,20.8442 C124.866,19.3354 124.229,17.3994 124.229,15.0361 C124.229,12.3115 124.856,10.168 126.111,8.60547 C127.366,7.04297 129.043,6.26172 131.143,6.26172 C132.109,6.26172 132.969,6.47412 133.721,6.89892 M134.746,18.2734 C135.361,17.3945 135.669,16.2568 135.669,14.8603 C135.669,12.9072 135.176,11.5107 134.189,10.6709 C133.584,10.1631 132.881,9.90918 132.08,9.90918 C130.859,9.90918 129.963,10.3706 129.392,11.2935 C128.821,12.2163 128.535,13.3613 128.535,14.7285 C128.535,16.2031 128.826,17.3823 129.407,18.2661 C129.988,19.1499 130.869,19.5918 132.051,19.5918 C133.232,19.5918 134.131,19.1523 134.746,18.2734 Z" style="stroke:none;fill-rule:nonzero;fill:#000000;fill-opacity:1;"/>
        </g>
    </g>
</svg>
