<?xml version="1.0"?>
<svg version="1.1" xmlns="http://www.w3.org/2000/svg" xmlns:xlink="http://www.w3.org/1999/xlink" width="81" height="30">
    <desc iVinci="yes" version="4.5" gridStep="20" showGrid="no" snapToGrid="no" codePlatform="0"/>
    <g id="Layer1" opacity="1">
        <g id="Shape1">
            <path id="shapePath1" d="M0,0 L0,30.666 L81.227,30.666 L81.227,0 L0,0 M77.226,26.666 L4,26.666 L4,4 L77.227,4 L77.227,26.666 L77.226,26.666 M19.302,15.905 L14.913,16.716 L14.913,13.893 L19.247,14.76 L19.274,14.704 L16.311,11.182 L18.799,9.756 L20.363,14.032 L20.42,14.032 L22.014,9.756 L24.473,11.153 L21.453,14.704 L21.482,14.787 L25.925,13.892 L25.925,16.715 L21.452,15.933 L21.425,16.017 L24.472,19.455 L21.984,20.908 L20.39,16.575 L20.335,16.603 L18.714,20.908 L16.31,19.455 L19.3,15.961 L19.3,15.905 L19.302,15.905 M31.99,15.905 L27.601,16.716 L27.601,13.893 L31.935,14.76 L31.962,14.704 L28.999,11.182 L31.487,9.756 L33.051,14.032 L33.108,14.032 L34.702,9.756 L37.161,11.153 L34.141,14.704 L34.17,14.787 L38.613,13.892 L38.613,16.715 L34.14,15.933 L34.113,16.017 L37.16,19.455 L34.672,20.908 L33.078,16.575 L33.023,16.603 L31.402,20.908 L28.998,19.455 L31.988,15.961 L31.988,15.905 L31.99,15.905 M44.677,15.905 L40.288,16.716 L40.288,13.893 L44.622,14.76 L44.649,14.704 L41.686,11.182 L44.174,9.756 L45.738,14.032 L45.795,14.032 L47.389,9.756 L49.848,11.153 L46.828,14.704 L46.857,14.787 L51.3,13.892 L51.3,16.715 L46.827,15.933 L46.8,16.017 L49.847,19.455 L47.359,20.908 L45.765,16.575 L45.713,16.604 L44.092,20.909 L41.688,19.456 L44.678,15.962 L44.678,15.905 L44.677,15.905 M57.365,15.905 L52.976,16.716 L52.976,13.893 L57.31,14.76 L57.337,14.704 L54.374,11.182 L56.862,9.756 L58.426,14.032 L58.483,14.032 L60.077,9.756 L62.536,11.153 L59.516,14.704 L59.545,14.787 L63.988,13.892 L63.988,16.715 L59.515,15.933 L59.488,16.017 L62.535,19.455 L60.047,20.908 L58.453,16.575 L58.398,16.603 L56.777,20.908 L54.373,19.455 L57.363,15.961 L57.363,15.905 L57.365,15.905 Z" style="stroke:none;fill-rule:nonzero;fill:#008000;fill-opacity:1;"/>
        </g>
    </g>
</svg>
