<?xml version="1.0"?>
<svg version="1.1" xmlns="http://www.w3.org/2000/svg" xmlns:xlink="http://www.w3.org/1999/xlink" width="65" height="95">
    <desc iVinci="yes" version="4.5" gridStep="20" showGrid="no" snapToGrid="no" codePlatform="0"/>
    <g id="Layer1" opacity="1">
        <g id="Shape1">
            <path id="shapePath1" d="M52.949,8.66904 C47.248,4.55704 40.088,2.50005 31.471,2.50005 C24.912,2.50005 19.381,3.94905 14.883,6.84005 C7.75,11.371 3.957,19.062 3.5,29.912 L20.031,29.912 C20.031,26.754 20.953,23.709 22.797,20.775 C24.643,17.843 27.772,16.379 32.186,16.379 C36.674,16.379 39.766,17.569 41.457,19.947 C43.15,22.328 43.996,24.965 43.996,27.857 C43.996,30.37 42.734,32.673 41.215,34.767 C40.379,35.987 39.277,37.109 37.908,38.136 C37.908,38.136 28.943,43.886 25.008,48.504 C22.725,51.185 22.52,55.196 22.319,60.953 C22.305,61.362 22.462,62.208 23.895,62.208 C25.328,62.208 35.477,62.208 36.752,62.208 C38.027,62.208 38.293,61.257 38.311,60.846 C38.401,58.748 38.637,57.679 39.018,56.469 C39.741,54.183 41.706,52.186 43.911,50.472 L48.462,47.331 C52.569,44.132 55.847,41.505 57.292,39.448 C59.764,36.062 61.5,31.893 61.5,26.943 C61.5,18.873 58.648,12.781 52.949,8.66904 M31.205,72.117 C25.508,71.947 20.807,75.888 20.627,82.068 C20.449,88.246 24.92,92.326 30.617,92.494 C36.566,92.671 41.14,88.857 41.318,82.68 C41.496,76.5 37.154,72.293 31.205,72.117 Z" style="stroke:#000000;stroke-opacity:1;stroke-width:3;stroke-linejoin:miter;stroke-miterlimit:2;stroke-linecap:butt;fill-rule:nonzero;fill:#f59b00;fill-opacity:1;"/>
        </g>
    </g>
</svg>
