<?xml version="1.0"?>
<svg version="1.1" id="Layer_1" xmlns="http://www.w3.org/2000/svg" xmlns:xlink="http://www.w3.org/1999/xlink" x="0px" y="0px"
	 width="20px" height="35px" viewBox="0 0 20 35" enable-background="new 0 0 20 35" xml:space="preserve">
    <desc iVinci="yes" version="4.5" gridStep="20" showGrid="no" snapToGrid="no" codePlatform="0"/>
    <g id="Layer1" opacity="1">
        <g id="Shape1">
            <path id="shapePath1" d="M17.968,0 L2.364,0 C1.064,0 0,1.063 0,2.364 L0,32.635 C0,33.936 1.064,35 2.364,35 L17.968,35 C19.268,35 20.332,33.937 20.332,32.636 L20.332,2.364 C20.332,1.063 19.268,0 17.968,0 M7.67,1.704 L12.662,1.704 C12.82,1.704 12.948,1.832 12.948,1.991 C12.948,2.149 12.82,2.277 12.662,2.277 L7.67,2.277 C7.512,2.277 7.384,2.149 7.384,1.991 C7.384,1.832 7.512,1.704 7.67,1.704 M10.166,33.818 C9.513,33.818 8.984,33.289 8.984,32.636 C8.984,31.983 9.513,31.454 10.166,31.454 C10.819,31.454 11.348,31.983 11.348,32.636 C11.348,33.289 10.819,33.818 10.166,33.818 M18.687,30.625 L1.645,30.625 L1.645,3.749 L18.687,3.749 L18.687,30.625 Z" style="stroke:none;fill-rule:nonzero;fill:#000000;fill-opacity:1;"/>
        </g>
        <g id="Shape2">
            <path id="shapePath2" d="M7.58594,12.1691 L8.75195,12.1691 L8.75195,19.7511 L13.1113,19.7511 L13.1113,20.7765 L7.58594,20.7765 L7.58594,12.1691 Z" style="stroke:none;fill-rule:nonzero;fill:#000000;fill-opacity:1;"/>
        </g>
    </g>
</svg>
