<?xml version="1.0"?>
<svg version="1.1" id="Layer_1" xmlns="http://www.w3.org/2000/svg" xmlns:xlink="http://www.w3.org/1999/xlink" x="0px" y="0px"
	 width="20px" height="35px" viewBox="0 0 20 35" enable-background="new 0 0 20 35" xml:space="preserve">
    <desc iVinci="yes" version="4.5" gridStep="20" showGrid="no" snapToGrid="no" codePlatform="0"/>
    <g id="Layer1" opacity="1">
        <g id="Shape1">
            <path id="shapePath1" d="M17.968,0 L2.364,0 C1.064,0 0,1.063 0,2.364 L0,32.635 C0,33.936 1.064,35 2.364,35 L17.968,35 C19.268,35 20.332,33.937 20.332,32.636 L20.332,2.364 C20.332,1.063 19.268,0 17.968,0 M7.67,1.704 L12.662,1.704 C12.82,1.704 12.948,1.832 12.948,1.991 C12.948,2.149 12.82,2.277 12.662,2.277 L7.67,2.277 C7.512,2.277 7.384,2.149 7.384,1.991 C7.384,1.832 7.512,1.704 7.67,1.704 M10.166,33.818 C9.513,33.818 8.984,33.289 8.984,32.636 C8.984,31.983 9.513,31.454 10.166,31.454 C10.819,31.454 11.348,31.983 11.348,32.636 C11.348,33.289 10.819,33.818 10.166,33.818 M18.687,30.625 L1.645,30.625 L1.645,3.749 L18.687,3.749 L18.687,30.625 Z" style="stroke:none;fill-rule:nonzero;fill:#000000;fill-opacity:1;"/>
        </g>
        <g id="Shape2">
            <path id="shapePath2" d="M5.55225,12.2174 L7.36133,12.2174 L10.04,20.1012 L12.6997,12.2174 L14.4897,12.2174 L14.4897,21.5422 L13.29,21.5422 L13.29,16.0387 C13.29,15.8483 13.2943,15.533 13.3027,15.0929 C13.3112,14.6528 13.3154,14.181 13.3154,13.6774 L10.6558,21.5422 L9.40527,21.5422 L6.72656,13.6774 L6.72656,13.9631 C6.72656,14.1916 6.73185,14.5396 6.74243,15.0072 C6.75301,15.4749 6.7583,15.8187 6.7583,16.0387 L6.7583,21.5422 L5.55225,21.5422 L5.55225,12.2174 Z" style="stroke:none;fill-rule:nonzero;fill:#000000;fill-opacity:1;"/>
        </g>
    </g>
</svg>
