<?xml version="1.0"?>
<svg version="1.1" xmlns="http://www.w3.org/2000/svg" xmlns:xlink="http://www.w3.org/1999/xlink" width="20.332" height="35">
    <desc iVinci="yes" version="4.5" gridStep="20" showGrid="no" snapToGrid="no" codePlatform="0"/>
    <g id="Layer1" opacity="1">
        <g id="Shape1">
            <path id="shapePath1" d="M17.968,0 L2.364,0 C1.064,0 0,1.063 0,2.364 L0,32.635 C0,33.936 1.064,35 2.364,35 L17.968,35 C19.268,35 20.332,33.937 20.332,32.636 L20.332,2.364 C20.332,1.063 19.268,0 17.968,0 M7.67,1.704 L12.662,1.704 C12.82,1.704 12.948,1.832 12.948,1.991 C12.948,2.149 12.82,2.277 12.662,2.277 L7.67,2.277 C7.512,2.277 7.384,2.149 7.384,1.991 C7.384,1.832 7.512,1.704 7.67,1.704 M10.166,33.818 C9.513,33.818 8.984,33.289 8.984,32.636 C8.984,31.983 9.513,31.454 10.166,31.454 C10.819,31.454 11.348,31.983 11.348,32.636 C11.348,33.289 10.819,33.818 10.166,33.818 M18.687,30.625 L1.645,30.625 L1.645,3.749 L18.687,3.749 L18.687,30.625 Z" style="stroke:none;fill-rule:nonzero;fill:#000000;fill-opacity:1;"/>
        </g>
        <g id="Shape2">
            <path id="shapePath2" d="M7.09473,18.6173 C7.12891,19.2277 7.27295,19.7233 7.52685,20.1042 C8.01025,20.8171 8.8623,21.1735 10.083,21.1735 C10.6299,21.1735 11.1279,21.0954 11.5771,20.9391 C12.4463,20.6364 12.8809,20.0944 12.8809,19.3132 C12.8809,18.7272 12.6978,18.3097 12.3315,18.0607 C11.9604,17.8166 11.3794,17.6042 10.5884,17.4235 L9.13086,17.0939 C8.17871,16.8791 7.50488,16.6423 7.10937,16.3835 C6.42578,15.9342 6.08398,15.2629 6.08398,14.3693 C6.08398,13.4025 6.41846,12.609 7.0874,11.9889 C7.75635,11.3688 8.70361,11.0588 9.9292,11.0588 C11.0571,11.0588 12.0154,11.331 12.804,11.8754 C13.5925,12.4198 13.9868,13.2902 13.9868,14.4865 L12.6172,14.4865 C12.5439,13.9103 12.3877,13.4684 12.1484,13.1608 C11.7041,12.5993 10.9497,12.3185 9.88525,12.3185 C9.02588,12.3185 8.4082,12.4992 8.03223,12.8605 C7.65625,13.2218 7.46826,13.6418 7.46826,14.1203 C7.46826,14.6476 7.68799,15.0334 8.12744,15.2775 C8.41553,15.4338 9.06738,15.6291 10.083,15.8634 L11.5918,16.2077 C12.3193,16.3737 12.8809,16.6007 13.2764,16.8888 C13.96,17.3918 14.3018,18.1217 14.3018,19.0788 C14.3018,20.2702 13.8684,21.1222 13.0017,21.6349 C12.135,22.1476 11.1279,22.404 9.98047,22.404 C8.64258,22.404 7.59521,22.0622 6.83838,21.3786 C6.08154,20.6999 5.71045,19.7795 5.7251,18.6173 L7.09473,18.6173 Z" style="stroke:none;fill-rule:nonzero;fill:#000000;fill-opacity:1;"/>
        </g>
    </g>
</svg>
