<?xml version="1.0"?>
<svg version="1.1" xmlns="http://www.w3.org/2000/svg" xmlns:xlink="http://www.w3.org/1999/xlink" width="59" height="15">
    <desc iVinci="yes" version="4.5" gridStep="20" showGrid="no" snapToGrid="no" codePlatform="0"/>
    <g id="Layer1" opacity="1">
        <g id="Shape1">
           <path id="shapePath1" d="M7.418,2.962 C4.961,2.962 2.961,4.961 2.961,7.418 C2.961,9.875 4.961,11.874 7.418,11.874 C9.873,11.874 11.873,9.875 11.873,7.418 C11.873,4.961 9.874,2.962 7.418,2.962 M7.418,10.25 C5.858,10.25 4.586,8.98 4.586,7.419 C4.586,5.858 5.858,4.588 7.418,4.588 C8.979,4.588 10.248,5.858 10.248,7.419 C10.248,8.98 8.979,10.25 7.418,10.25 Z" style="stroke:none;fill-rule:nonzero;fill:#000000;fill-opacity:1;"/>
        </g>
        <g id="Shape2">
            <path id="shapePath2" d="M7.147,0.000999451 C3.182,0.158998 0,3.42 0,7.419 C0,11.078 2.663,14.119 6.153,14.72 C6.697,14.814 7.594,14.826 8.146,14.826 C14.55,14.836 49.55,14.836 49.55,14.836 C54.519,14.836 58.56,11.508 58.56,7.418 C58.56,3.328 54.519,0 49.55,0 L7.147,0 L7.147,0.000999451 M7.418,13.211 C4.223,13.211 1.625,10.611 1.625,7.418 C1.625,4.225 4.223,1.625 7.418,1.625 C10.611,1.625 13.211,4.225 13.211,7.418 C13.211,10.612 10.612,13.211 7.418,13.211 M13.038,13.211 C12.486,13.211 12.394,12.936 12.776,12.537 C14.051,11.205 14.837,9.402 14.837,7.418 C14.837,5.434 14.051,3.631 12.776,2.299 C12.394,1.9 12.486,1.625 13.038,1.625 L49.551,1.625 C53.623,1.625 56.936,4.225 56.936,7.418 C56.936,10.611 53.624,13.211 49.551,13.211 L13.038,13.211 Z" style="stroke:none;fill-rule:nonzero;fill:#000000;fill-opacity:1;"/>
        </g>
        <g id="Shape3">
            <path id="shapePath3" d="M17.84,3.106 C17.483,2.861 16.957,2.957 16.711,3.315 C16.588,3.494 16.541,3.71 16.582,3.923 C16.621,4.137 16.742,4.321 16.92,4.444 L20.418,6.851 C20.873,7.164 20.873,7.671 20.418,7.985 L16.92,10.392 C16.742,10.515 16.621,10.7 16.582,10.914 C16.541,11.128 16.588,11.344 16.711,11.522 C16.861,11.742 17.113,11.875 17.381,11.875 C17.545,11.875 17.705,11.825 17.84,11.731 L23.137,8.088 C23.356,7.936 23.488,7.685 23.488,7.418 C23.488,7.151 23.355,6.9 23.135,6.748 L17.84,3.106 Z" style="stroke:none;fill-rule:nonzero;fill:#000000;fill-opacity:1;"/>
        </g>
        <g id="Shape4">
            <path id="shapePath4" d="M24.592,3.106 C24.237,2.861 23.709,2.957 23.463,3.315 C23.211,3.683 23.303,4.19 23.672,4.445 L27.17,6.852 C27.625,7.165 27.625,7.672 27.17,7.986 L23.672,10.393 C23.303,10.648 23.211,11.155 23.463,11.523 C23.613,11.743 23.865,11.876 24.133,11.876 C24.299,11.876 24.457,11.826 24.592,11.732 L29.889,8.089 C30.108,7.937 30.241,7.686 30.241,7.419 C30.241,7.152 30.108,6.901 29.888,6.749 L24.592,3.106 Z" style="stroke:none;fill-rule:nonzero;fill:#000000;fill-opacity:1;"/>
        </g>
        <g id="Shape5">
            <path id="shapePath5" d="M31.346,3.106 C30.989,2.861 30.461,2.957 30.215,3.315 C29.963,3.683 30.057,4.19 30.424,4.445 L33.922,6.852 C34.377,7.165 34.377,7.672 33.922,7.986 L30.424,10.393 C30.057,10.648 29.963,11.155 30.215,11.523 C30.367,11.743 30.617,11.876 30.885,11.876 C31.051,11.876 31.209,11.826 31.346,11.732 L36.641,8.089 C36.86,7.937 36.992,7.686 36.992,7.419 C36.992,7.152 36.859,6.901 36.639,6.749 L31.346,3.106 Z" style="stroke:none;fill-rule:nonzero;fill:#000000;fill-opacity:1;"/>
        </g>
        <g id="Shape6">
            <path id="shapePath6" d="M38.098,3.106 C37.742,2.861 37.213,2.957 36.967,3.315 C36.844,3.494 36.799,3.71 36.838,3.923 C36.877,4.137 36.998,4.321 37.176,4.444 L40.674,6.851 C41.129,7.164 41.129,7.671 40.674,7.985 L37.176,10.392 C36.998,10.515 36.877,10.7 36.838,10.914 C36.799,11.128 36.844,11.344 36.967,11.522 C37.117,11.742 37.369,11.875 37.637,11.875 C37.803,11.875 37.961,11.825 38.096,11.731 L43.393,8.088 C43.612,7.936 43.745,7.685 43.745,7.418 C43.745,7.151 43.612,6.9 43.393,6.748 L38.098,3.106 Z" style="stroke:none;fill-rule:nonzero;fill:#000000;fill-opacity:1;"/>
        </g>
        <g id="Shape7">
            <path id="shapePath7" d="M43.719,3.315 C43.596,3.494 43.551,3.71 43.59,3.923 C43.629,4.137 43.75,4.321 43.928,4.444 L47.426,6.851 C47.881,7.164 47.881,7.671 47.426,7.985 L43.928,10.392 C43.75,10.515 43.629,10.7 43.59,10.914 C43.551,11.128 43.596,11.344 43.719,11.522 C43.871,11.742 44.121,11.875 44.389,11.875 C44.555,11.875 44.713,11.825 44.85,11.731 L50.145,8.088 C50.366,7.936 50.497,7.685 50.497,7.418 C50.497,7.151 50.366,6.9 50.145,6.748 L44.85,3.105 C44.495,2.861 43.965,2.957 43.719,3.315 Z" style="stroke:none;fill-rule:nonzero;fill:#000000;fill-opacity:1;"/>
        </g>
    </g>
</svg>
