<?xml version="1.0"?>
<svg version="1.1" id="Layer_1" xmlns="http://www.w3.org/2000/svg" xmlns:xlink="http://www.w3.org/1999/xlink" x="0px" y="0px"
	 width="59px" height="15px" viewBox="0 0 59 15" enable-background="new 0 0 59 15" xml:space="preserve">
    <desc iVinci="yes" version="4.5" gridStep="20" showGrid="no" snapToGrid="no" codePlatform="0"/>
    <g id="Layer1" opacity="1">
        <g id="Shape1">
            <path id="shapePath1" d="M7.418,2.962 C4.961,2.962 2.961,4.961 2.961,7.418 C2.961,9.875 4.961,11.874 7.418,11.874 C9.873,11.874 11.873,9.875 11.873,7.418 C11.873,4.961 9.874,2.962 7.418,2.962 M7.418,10.25 C5.858,10.25 4.586,8.98 4.586,7.419 C4.586,5.858 5.858,4.588 7.418,4.588 C8.979,4.588 10.248,5.858 10.248,7.419 C10.248,8.98 8.979,10.25 7.418,10.25 Z" style="stroke:none;fill-rule:evenodd;fill:#000000;fill-opacity:1;"/>
        </g>
        <g id="Shape2">
           <path id="shapePath2" d="M7.147,0.000999451 C3.182,0.158998 0,3.42 0,7.419 C0,11.078 2.663,14.119 6.153,14.72 C6.697,14.814 7.594,14.826 8.146,14.826 C14.55,14.836 49.55,14.836 49.55,14.836 C54.519,14.836 58.56,11.508 58.56,7.418 C58.56,3.328 54.519,0 49.55,0 L7.147,0 L7.147,0.000999451 M7.418,13.211 C4.223,13.211 1.625,10.611 1.625,7.418 C1.625,4.225 4.223,1.625 7.418,1.625 C10.611,1.625 13.211,4.225 13.211,7.418 C13.211,10.612 10.612,13.211 7.418,13.211 M13.038,13.211 C12.486,13.211 12.394,12.936 12.776,12.537 C14.051,11.205 14.837,9.402 14.837,7.418 C14.837,5.434 14.051,3.631 12.776,2.299 C12.394,1.9 12.486,1.625 13.038,1.625 L49.551,1.625 C53.623,1.625 56.936,4.225 56.936,7.418 C56.936,10.611 53.624,13.211 49.551,13.211 L13.038,13.211 Z" style="stroke:none;fill-rule:evenodd;fill:#000000;fill-opacity:1;"/>
        </g>
        <g id="Shape3">
            <path id="shapePath3" d="M17.5889,7.74466 C17.6117,7.90905 17.6565,8.03193 17.7232,8.11331 C17.8453,8.26143 18.0544,8.33548 18.3506,8.33548 C18.528,8.33548 18.6721,8.31595 18.7828,8.27689 C18.9927,8.20202 19.0977,8.06286 19.0977,7.85941 C19.0977,7.74059 19.0456,7.64863 18.9414,7.58353 C18.8373,7.52005 18.6737,7.4639 18.4507,7.41507 L18.0699,7.32962 C17.6955,7.24499 17.4367,7.15303 17.2935,7.05374 C17.051,6.88773 16.9297,6.62812 16.9297,6.27493 C16.9297,5.95267 17.0469,5.68493 17.2813,5.47171 C17.5157,5.2585 17.8599,5.15189 18.314,5.15189 C18.6932,5.15189 19.0167,5.25239 19.2845,5.4534 C19.5522,5.65441 19.6926,5.94616 19.7056,6.32865 L18.9829,6.32865 C18.9699,6.11217 18.8755,5.95837 18.6997,5.86722 C18.5826,5.807 18.4369,5.77689 18.2627,5.77689 C18.069,5.77689 17.9144,5.81595 17.7989,5.89408 C17.6833,5.9722 17.6255,6.08125 17.6255,6.22122 C17.6255,6.3498 17.6825,6.44583 17.7964,6.50931 C17.8697,6.55163 18.0259,6.60127 18.2652,6.65824 L18.8853,6.80716 C19.1571,6.87227 19.3622,6.95934 19.5005,7.06839 C19.7154,7.23766 19.8228,7.48262 19.8228,7.80326 C19.8228,8.13203 19.6971,8.40506 19.4456,8.62235 C19.1941,8.83963 18.8389,8.94827 18.3799,8.94827 C17.9112,8.94827 17.5425,8.84126 17.274,8.62723 C17.0054,8.4132 16.8711,8.11901 16.8711,7.74466 L17.5889,7.74466 M21.0269,8.8555 L20.3311,8.8555 L20.3311,5.25687 L21.0269,5.25687 L21.0269,8.8555 M22.4068,5.87699 L21.7012,5.87699 L21.7012,5.2349 L22.4068,5.2349 L22.4068,5.87699 M21.7012,6.19437 L22.4068,6.19437 L22.4068,8.8555 L21.7012,8.8555 L21.7012,6.19437 M24.4776,6.23709 C24.6029,6.30789 24.7046,6.40596 24.7828,6.53128 L24.7828,5.26175 L25.4883,5.26175 L25.4883,8.8555 L24.812,8.8555 L24.812,8.48685 C24.7128,8.64473 24.5996,8.75947 24.4727,8.83109 C24.3457,8.9027 24.1879,8.93851 23.9991,8.93851 C23.6882,8.93851 23.4266,8.81278 23.2141,8.56131 C23.0017,8.30985 22.8955,7.98717 22.8955,7.59329 C22.8955,7.13919 23.0001,6.78193 23.2093,6.52152 C23.4184,6.2611 23.698,6.13089 24.0479,6.13089 C24.209,6.13089 24.3523,6.16629 24.4776,6.23709 M24.6485,8.13284 C24.751,7.98636 24.8023,7.79674 24.8023,7.564 C24.8023,7.23848 24.7201,7.00573 24.5557,6.86576 C24.4548,6.78112 24.3376,6.7388 24.2041,6.7388 C24.0007,6.7388 23.8514,6.81571 23.7561,6.96951 C23.6609,7.12332 23.6133,7.31416 23.6133,7.54202 C23.6133,7.78779 23.6617,7.98433 23.7586,8.13162 C23.8554,8.27892 24.0023,8.35257 24.1993,8.35257 C24.3962,8.35257 24.5459,8.27933 24.6485,8.13284 M26.7884,6.84867 C26.6997,6.94958 26.6439,7.0863 26.6211,7.25882 L27.7027,7.25882 C27.6913,7.0749 27.6355,6.93534 27.5354,6.84012 C27.4353,6.74491 27.3112,6.6973 27.1631,6.6973 C27.002,6.6973 26.8771,6.74775 26.7884,6.84867 M27.7613,6.24808 C27.9387,6.33109 28.0852,6.46211 28.2007,6.64115 C28.3049,6.79902 28.3724,6.98213 28.4034,7.19046 C28.4213,7.31253 28.4286,7.48831 28.4253,7.71781 L26.604,7.71781 C26.6138,7.98473 26.6976,8.17191 26.8555,8.27933 C26.9515,8.34606 27.0671,8.37943 27.2022,8.37943 C27.3454,8.37943 27.4618,8.33874 27.5513,8.25736 C27.6001,8.21341 27.6433,8.15238 27.6807,8.07425 L28.3912,8.07425 C28.3732,8.23213 28.2911,8.39245 28.1446,8.55521 C27.9167,8.814 27.5977,8.94339 27.1875,8.94339 C26.849,8.94339 26.5503,8.83434 26.2915,8.61624 C26.0328,8.39814 25.9034,8.04333 25.9034,7.55179 C25.9034,7.09118 26.0201,6.73799 26.2537,6.49222 C26.4873,6.24645 26.7904,6.12357 27.1631,6.12357 C27.3845,6.12357 27.5839,6.16507 27.7613,6.24808 M28.669,7.13187 L30.0704,7.13187 L30.0704,7.79105 L28.669,7.79105 L28.669,7.13187 M30.2618,6.71439 L30.2618,6.21878 L30.6329,6.21878 L30.6329,5.47659 L31.3213,5.47659 L31.3213,6.21878 L31.7535,6.21878 L31.7535,6.71439 L31.3213,6.71439 L31.3213,8.12064 C31.3213,8.22969 31.3352,8.29764 31.3628,8.3245 C31.3905,8.35135 31.4751,8.36478 31.6167,8.36478 C31.6379,8.36478 31.6603,8.36437 31.6839,8.36356 C31.7075,8.36274 31.7307,8.36152 31.7535,8.3599 L31.7535,8.87992 L31.4239,8.89212 C31.0951,8.90352 30.8705,8.84655 30.75,8.72122 C30.6719,8.64147 30.6329,8.51859 30.6329,8.35257 L30.6329,6.71439 L30.2618,6.71439 M33.854,8.14749 C33.9631,8.00264 34.0176,7.79674 34.0176,7.52982 C34.0176,7.26289 33.9631,7.05741 33.854,6.91336 C33.745,6.76932 33.5887,6.6973 33.3853,6.6973 C33.1818,6.6973 33.0252,6.76932 32.9153,6.91336 C32.8055,7.05741 32.7505,7.26289 32.7505,7.52982 C32.7505,7.79674 32.8055,8.00264 32.9153,8.14749 C33.0252,8.29235 33.1818,8.36478 33.3853,8.36478 C33.5887,8.36478 33.745,8.29235 33.854,8.14749 M34.4107,8.53201 C34.1861,8.80952 33.8451,8.94827 33.3877,8.94827 C32.9304,8.94827 32.5894,8.80952 32.3648,8.53201 C32.1402,8.25451 32.0279,7.92044 32.0279,7.52982 C32.0279,7.1457 32.1402,6.81286 32.3648,6.53128 C32.5894,6.24971 32.9304,6.10892 33.3877,6.10892 C33.8451,6.10892 34.1861,6.24971 34.4107,6.53128 C34.6353,6.81286 34.7476,7.1457 34.7476,7.52982 C34.7476,7.92044 34.6353,8.25451 34.4107,8.53201 M35.0284,7.13187 L36.4297,7.13187 L36.4297,7.79105 L35.0284,7.79105 L35.0284,7.13187 M37.5879,6.19437 L37.5879,7.79837 C37.5879,7.94974 37.6058,8.06367 37.6416,8.14017 C37.7051,8.27526 37.8296,8.34281 38.0152,8.34281 C38.2528,8.34281 38.4156,8.24678 38.5035,8.05472 C38.549,7.95055 38.5718,7.81302 38.5718,7.64212 L38.5718,6.19437 L39.2774,6.19437 L39.2774,8.8555 L38.6011,8.8555 L38.6011,8.47952 C38.5946,8.48766 38.5783,8.51208 38.5523,8.55277 C38.5262,8.59346 38.4953,8.62926 38.4595,8.66019 C38.3505,8.75784 38.2451,8.82458 38.1433,8.86038 C38.0416,8.89619 37.9224,8.91409 37.7857,8.91409 C37.3918,8.91409 37.1265,8.77249 36.9898,8.48929 C36.9133,8.33304 36.875,8.10273 36.875,7.79837 L36.875,6.19437 L37.5879,6.19437 M42.0911,6.34696 C42.2661,6.491 42.3536,6.72985 42.3536,7.06351 L42.3536,8.8555 L41.6407,8.8555 L41.6407,7.23685 C41.6407,7.09687 41.6219,6.98945 41.5845,6.91458 C41.5162,6.77786 41.3859,6.70951 41.1939,6.70951 C40.9579,6.70951 40.7959,6.8096 40.708,7.0098 C40.6625,7.11559 40.6397,7.25068 40.6397,7.41507 L40.6397,8.8555 L39.9463,8.8555 L39.9463,6.19925 L40.6177,6.19925 L40.6177,6.58743 C40.7072,6.45072 40.7919,6.35225 40.8716,6.29202 C41.0148,6.1846 41.1963,6.13089 41.4161,6.13089 C41.6911,6.13089 41.9161,6.20291 42.0911,6.34696 M43.6988,8.8555 L43.003,8.8555 L43.003,5.25687 L43.6988,5.25687 L43.6988,8.8555 M46.0259,8.14749 C46.135,8.00264 46.1895,7.79674 46.1895,7.52982 C46.1895,7.26289 46.135,7.05741 46.0259,6.91336 C45.9169,6.76932 45.7606,6.6973 45.5572,6.6973 C45.3537,6.6973 45.1971,6.76932 45.0872,6.91336 C44.9773,7.05741 44.9224,7.26289 44.9224,7.52982 C44.9224,7.79674 44.9773,8.00264 45.0872,8.14749 C45.1971,8.29235 45.3537,8.36478 45.5572,8.36478 C45.7606,8.36478 45.9169,8.29235 46.0259,8.14749 M46.5826,8.53201 C46.3579,8.80952 46.017,8.94827 45.5596,8.94827 C45.1022,8.94827 44.7613,8.80952 44.5367,8.53201 C44.312,8.25451 44.1997,7.92044 44.1997,7.52982 C44.1997,7.1457 44.312,6.81286 44.5367,6.53128 C44.7613,6.24971 45.1022,6.10892 45.5596,6.10892 C46.017,6.10892 46.3579,6.24971 46.5826,6.53128 C46.8072,6.81286 46.9195,7.1457 46.9195,7.52982 C46.9195,7.92044 46.8072,8.25451 46.5826,8.53201 M48.9995,7.14896 C48.9865,7.04967 48.9532,6.96016 48.8995,6.8804 C48.8213,6.77298 48.7001,6.71927 48.5357,6.71927 C48.3013,6.71927 48.141,6.83564 48.0547,7.06839 C48.0092,7.19209 47.9864,7.35648 47.9864,7.56156 C47.9864,7.75687 48.0092,7.91393 48.0547,8.03275 C48.1377,8.2541 48.294,8.36478 48.5235,8.36478 C48.6862,8.36478 48.8018,8.32083 48.8702,8.23294 C48.9385,8.14505 48.98,8.03112 48.9947,7.89115 L49.7051,7.89115 C49.6888,8.10273 49.6123,8.30293 49.4756,8.49173 C49.2575,8.79609 48.9344,8.94827 48.5064,8.94827 C48.0783,8.94827 47.7634,8.82132 47.5616,8.56742 C47.3597,8.31351 47.2588,7.98392 47.2588,7.57865 C47.2588,7.12129 47.3703,6.76566 47.5933,6.51175 C47.8163,6.25784 48.1239,6.13089 48.5162,6.13089 C48.8498,6.13089 49.1228,6.20576 49.3352,6.3555 C49.5476,6.50524 49.6734,6.76973 49.7124,7.14896 L48.9995,7.14896 M50.1685,5.26908 L50.8521,5.26908 L50.8521,7.20755 L51.7188,6.20658 L52.5806,6.20658 L51.6504,7.22464 L52.6172,8.8555 L51.7774,8.8555 L51.1402,7.71781 L50.8521,8.0181 L50.8521,8.8555 L50.1685,8.8555 L50.1685,5.26908 Z" style="stroke:none;fill-rule:nonzero;fill:#000000;fill-opacity:1;"/>
        </g>
    </g>
</svg>
