<svg xmlns="http://www.w3.org/2000/svg" xmlns:xlink="http://www.w3.org/1999/xlink" version="1.1" pageAlignment="none" width="21.27777862548828" height="26.27777862548828" enable-background="new 0 0 21.7 26.1" xml:space="preserve"><rect id="backgroundrect" width="100%" height="100%" x="0" y="0" fill="none" stroke="none"/><defs/><style type="text/css"/><style type="text/css"/><g class="currentLayer"><title>Layer 1</title><g type="LAYER" name="workspace" id="workspace" locked="true"/><path class="hand" width="21.259528000000007" height="25.921999999999997" stroke-miterlimit="3" stroke="none" fill="#000000" d="M1.1191421148135579,16.42799949645996 C2.5791421529605305,15.552000045776367 3.407141983206502,16.545000076293945 5.002142250235311,17.288999557495117 C6.373142063315145,17.929000854492188 7.901141941244832,17.93899917602539 8.035141765768758,17.13599967956543 C8.251142322714559,15.83899974822998 8.20414239137911,15.220000267028809 8.20414239137911,13.456999778747559 C8.20414239137911,12.055999755859375 7.7621420022799885,8.880999565124512 7.413142025168172,6.48199987411499 C6.993141948874227,3.5950000286102295 6.847142040426961,1.9049999713897705 8.264141857321492,1.7719999551773071 C9.624142467673055,1.6440000534057617 9.69214230745577,2.4110000133514404 10.209142505820028,6.331999778747559 C10.605142414267293,9.338000297546387 11.232142269308797,11.45300006866455 11.545141994650594,11.390999794006348 C11.85814171999239,11.329000473022461 11.393142521078817,8.604999542236328 11.279142200644246,5.828000068664551 C11.076142131979696,0.859000027179718 11.342141925986043,0.078000009059906 12.592141925986043,0.078000009059906 C13.669142543967,0.078000009059906 13.904142200644246,0.7809999585151672 14.044142543967,5.828000068664551 C14.117142498190633,8.45300006866455 14.403141796286336,11.185999870300293 14.625141918356649,11.185999870300293 C14.959142505820028,11.185999870300293 15.224142849142781,8.623000144958496 15.173142254050008,5.845000267028809 C15.076142131979696,0.6510000228881836 15.990141689474813,1.0429999828338623 16.54014283388399,1.0429999828338623 C17.082142650778522,1.0429999828338623 18.029141246969928,1.1959999799728394 17.999142467673053,6.14900016784668 C17.980141460592975,9.045000076293945 17.999142467673053,11.545000076293945 18.546141445334186,11.545000076293945 C18.79014283388399,11.545000076293945 19.184141933615436,9.211000442504883 19.184141933615436,6.939000129699707 C19.184141933615436,3.1389999389648438 19.91314202516817,3.1389999389648438 20.49214249819063,3.1389999389648438 C21.069142162497272,3.1389999389648438 21.37314301698946,3.8389999866485596 21.403141796286334,7.638000011444092 C21.428141414816608,10.666000366210938 21.076142131979694,14.928999900817871 21.076142131979694,17.51300048828125 C21.076142131979694,23.802000045776367 19.035141765768756,23.868000030517578 19.035141765768756,26 L10.494142353232137,26 C10.243141948874227,25.395999908447266 9.662142574484578,25.04199981689453 8.263142406637899,23.613000869750977 C6.852142154867879,22.172000885009766 3.657141983206502,19.415000915527344 1.1381421682193196,18.87299919128418 C-0.5478578510925853,18.51099967956543 0.21814209192537426,16.9689998626709 1.1191421148135579,16.42799949645996 z" id="svg_1"/><path fill="none" fill-opacity="1" stroke="#008000" stroke-opacity="1" stroke-width="0.5" stroke-dasharray="none" stroke-linejoin="miter" stroke-linecap="butt" stroke-dashoffset="" fill-rule="nonzero" opacity="1" marker-start="" marker-mid="" marker-end="" d="M0.2777777910232544,17.687500946234536 C0.2777777910232544,16.4866099605548 1.1883440017700195,15.513888359069824 2.3125,15.513888359069824 C3.4366559982299805,15.513888359069824 4.347222328186035,16.4866099605548 4.347222328186035,17.687500946234536 C4.347222328186035,18.888389993602118 3.4366559982299805,19.86111062593102 2.3125,19.86111062593102 C1.1883440017700195,19.86111062593102 0.2777777910232544,18.888389993602118 0.2777777910232544,17.687500946234536 z" id="svg_2" class=""/></g></svg>