<?xml version="1.0"?>
<svg version="1.1" id="Layer_1" xmlns="http://www.w3.org/2000/svg" xmlns:xlink="http://www.w3.org/1999/xlink" x="0px" y="0px"
	 width="21px" height="26px" viewBox="0 0 21 26" enable-background="new 0 0 21 26" xml:space="preserve">
    <desc iVinci="yes" version="4.5" gridStep="20" showGrid="no" snapToGrid="no" codePlatform="0"/>
    <g id="Layer1" opacity="1">
        <g id="Shape1">
            <desc shapeID="1" type="0" basicInfo-basicType="0" basicInfo-roundedRectRadius="12" basicInfo-polygonSides="6" basicInfo-starPoints="5" bounding="rect(-10.6327,-12.961,21.2653,25.922)" text="" font-familyName="" font-pixelSize="20" font-bold="0" font-underline="0" font-alignment="1" strokeStyle="0" markerStart="0" markerEnd="0" shadowEnabled="0" shadowOffsetX="0" shadowOffsetY="2" shadowBlur="4" shadowOpacity="160" blurEnabled="0" blurRadius="4" transform="matrix(1,0,0,1,10.7718,13.039)" pers-center="0,0" pers-size="0,0" pers-start="0,0" pers-end="0,0" locked="0" mesh="" flag=""/>
            <path id="shapePath1" d="M1.11914,16.428 C2.57914,15.552 3.40714,16.545 5.00214,17.289 C6.37314,17.929 7.90114,17.939 8.03514,17.136 C8.25114,15.839 8.20414,15.22 8.20414,13.457 C8.20414,12.056 7.76214,8.881 7.41314,6.482 C6.99314,3.595 6.84714,1.905 8.26414,1.772 C9.62414,1.644 9.69214,2.411 10.2091,6.332 C10.6051,9.338 11.2321,11.453 11.5451,11.391 C11.8581,11.329 11.3931,8.605 11.2791,5.828 C11.0761,0.859 11.3421,0.0780001 12.5921,0.0780001 C13.6691,0.0780001 13.9041,0.781 14.0441,5.828 C14.1171,8.453 14.4031,11.186 14.6251,11.186 C14.9591,11.186 15.2241,8.623 15.1731,5.845 C15.0761,0.651 15.9901,1.043 16.5401,1.043 C17.0821,1.043 18.0291,1.196 17.9991,6.149 C17.9801,9.045 17.9991,11.545 18.5461,11.545 C18.7901,11.545 19.1841,9.211 19.1841,6.939 C19.1841,3.139 19.9131,3.139 20.4921,3.139 C21.0691,3.139 21.3731,3.839 21.4031,7.638 C21.4281,10.666 21.0761,14.929 21.0761,17.513 C21.0761,23.802 19.0351,23.868 19.0351,26 L10.4941,26 C10.2431,25.396 9.66214,25.042 8.26314,23.613 C6.85214,22.172 3.65714,19.415 1.13814,18.873 C-0.547858,18.511 0.218143,16.969 1.11914,16.428 Z" style="stroke:none;fill-rule:nonzero;fill:#000000;fill-opacity:1;"/>
        </g>
        <g id="Shape2">
            <desc shapeID="2" type="0" basicInfo-basicType="0" basicInfo-roundedRectRadius="12" basicInfo-polygonSides="6" basicInfo-starPoints="5" bounding="rect(-2.03472,-2.17361,4.06944,4.34722)" text="" font-familyName="" font-pixelSize="20" font-bold="0" font-underline="0" font-alignment="1" strokeStyle="0" markerStart="0" markerEnd="0" shadowEnabled="0" shadowOffsetX="0" shadowOffsetY="2" shadowBlur="4" shadowOpacity="160" blurEnabled="0" blurRadius="4" transform="matrix(1,0,0,1,2.3125,17.6875)" pers-center="0,0" pers-size="0,0" pers-start="0,0" pers-end="0,0" locked="0" mesh="" flag=""/>
            <path id="shapePath2" d="M0.277778,17.6875 C0.277778,16.4866 1.18834,15.5139 2.3125,15.5139 C3.43666,15.5139 4.34722,16.4866 4.34722,17.6875 C4.34722,18.8884 3.43666,19.8611 2.3125,19.8611 C1.18834,19.8611 0.277778,18.8884 0.277778,17.6875 Z" style="stroke:#008000;stroke-opacity:1;stroke-width:0.5;stroke-linejoin:;stroke-miterlimit:2;stroke-linecap:butt;fill:none;"/>
        </g>
    </g>
</svg>
