<?xml version="1.0"?>
<svg version="1.1" xmlns="http://www.w3.org/2000/svg" xmlns:xlink="http://www.w3.org/1999/xlink" width="21.2778" height="26.2778">
    <desc iVinci="yes" version="4.5" gridStep="20" showGrid="no" snapToGrid="no" codePlatform="0"/>
    <g id="Layer1" opacity="1">
        <g id="Shape1">
            <path id="shapePath1" d="M20.0322,16.428 C18.5904,15.552 17.7727,16.545 16.1976,17.289 C14.8437,17.929 13.3348,17.939 13.2025,17.136 C12.9892,15.839 13.0356,15.22 13.0356,13.457 C13.0356,12.056 13.4721,8.881 13.8167,6.482 C14.2315,3.595 14.3756,1.905 12.9763,1.772 C11.6333,1.644 11.5661,2.411 11.0556,6.332 C10.6645,9.338 10.0454,11.453 9.73626,11.391 C9.42717,11.329 9.88636,8.605 9.99894,5.828 C10.1994,0.859 9.93673,0.0780001 8.70232,0.0780001 C7.63876,0.0780001 7.40669,0.781 7.26844,5.828 C7.19635,8.453 6.91392,11.186 6.69469,11.186 C6.36485,11.186 6.10316,8.623 6.15352,5.845 C6.24931,0.651 5.34672,1.043 4.80358,1.043 C4.26834,1.043 3.33316,1.196 3.36278,6.149 C3.38155,9.045 3.36278,11.545 2.82261,11.545 C2.58165,11.545 2.19257,9.211 2.19257,6.939 C2.19257,3.139 1.47266,3.139 0.900888,3.139 C0.331088,3.139 0.03088,3.839 0.00125504,7.638 C-0.0234327,10.666 0.324175,14.929 0.324175,17.513 C0.324175,23.802 2.33971,23.868 2.33971,26 L10.7741,26 C11.022,25.396 11.5958,25.042 12.9773,23.613 C14.3707,22.172 17.5258,19.415 20.0134,18.873 C21.6784,18.511 20.9219,16.969 20.0322,16.428 Z" style="stroke:none;fill-rule:evenodd;fill:#008000;fill-opacity:1;"/>
        </g>
        <g id="Shape2">
            <path id="shapePath2" d="M20.7757,17.6875 C20.7757,16.4866 19.8651,15.5139 18.7409,15.5139 C17.6168,15.5139 16.7062,16.4866 16.7062,17.6875 C16.7062,18.8884 17.6168,19.8611 18.7409,19.8611 C19.8651,19.8611 20.7757,18.8884 20.7757,17.6875 Z" style="stroke:#008000;stroke-opacity:1;stroke-width:0.5;stroke-linejoin:miter;stroke-miterlimit:2;stroke-linecap:butt;fill:none;"/>
        </g>
    </g>
</svg>
